<?xml version="1.0" standalone="no"?>
<!DOCTYPE svg PUBLIC "-//W3C//DTD SVG 1.1//EN" "http://www.w3.org/Graphics/SVG/1.1/DTD/svg11.dtd" >
<svg xmlns="http://www.w3.org/2000/svg">
<metadata></metadata>
<defs>
<font id="dast_nevisregular" horiz-adv-x="0" >
<font-face units-per-em="2048" ascent="1638" descent="-410" />
<missing-glyph horiz-adv-x="413" />
<glyph unicode="&#x627;&#xfedf;&#xfee0;&#xfeea;" horiz-adv-x="2091" arabic-form="isolated" d="M141 -71q0 140 268 384q212 175 382 175q178 0 233 -130q16 -41 23 -163q6 -33 30 -33l1 -1q5 1 17 1q100 0 128 130q30 137 37 247q9 115 15 251q8 137 41 169q34 34 72 4q38 -29 33 -161q-5 -142 -19 -316q-9 -110 -35 -210l3 -18q10 -73 49 -88l19 -9q4 1 14 1 q99 0 125 134q25 135 3 283t-57 250q-34 101 -8 130t72 17q46 -10 88 -133q42 -118 56 -331q13 -207 -46 -355q-58 -145 -233 -157l-24 3q-27 -5 -60 11q-42 20 -80 74q-67 -81 -193 -88h-5l-21 -6h-57q-80 0 -106 60q-24 30 -37 226q-15 58 -58 58l-15 2h-13 q-157 0 -379 -243q-76 -97 -90 -145h3l35 5h7q81 -12 81 -78l2 -3v-2q0 -95 -150 -95q-120 0 -148 102l-3 26v22zM1123 1194q0 65 52 102q10 7 20 7q13 0 13 -11q0 -8 -9 -20q-36 -50 -24 -72t51 -22q52 0 73 34q12 18 13 67q1 37 19 37q6 0 25 -58t53 -58q68 0 68 39 q0 13 -4 25q-17 53 10 58q20 5 34 -24q12 -23 12 -44q0 -54 -29 -92q-31 -40 -85 -40q-44 0 -88 32q-60 -64 -110 -64q-41 0 -67.5 30t-26.5 74zM1244 1528l55 52q20 -34 20 -92q0 -106 -26 -106q-5 8 -12 49q-10 59 -37 97zM1835 40q34 711 34 858q0 58 71 78h9 q59 0 78 -64l1 -14q0 -77 -36 -872q-27 -59 -76 -59h-1q-80 9 -80 73z" />
<glyph unicode="&#xfedf;&#xfe8e;" horiz-adv-x="1145" arabic-form="isolated" d="M232 980v4q0 48 67 76l15 2q55 0 290 -334l16 -17q2 6 65 72q262 261 415 382q158 134 219 170q18 6 33 6q60 0 80 -72v-10q0 -47 -50 -77q-194 -143 -428 -349q-125 -109 -235 -233v-2q72 -94 151 -299q78 -203 -39 -390q-67 -77 -113 -98q-44 -31 -124 -65 q-39 -16 -100 -16h-7q-165 0 -211 118q-32 69 -32 145q0 208 276 590q-288 357 -288 397zM398 -4q0 -78 55 -109l49 -7q82 0 170 83q48 54 61 122q9 52 9 74q0 143 -125 319h-2q-197 -292 -217 -464v-18z" />
<glyph unicode="&#xfee0;&#xfe8e;" horiz-adv-x="774" arabic-form="final" d="M-225 -295q0 40 50 76q92 89 121 139q134 162 180 366q51 215 68 350q27 73 84 73q65 0 83 -65l2 -18q-28 -228 -95 -456l-86 -224v-5l23 -3q117 0 254 288q82 192 97 334q15 129 20 267q4 126 83 126h16q48 0 78 -58q7 -15 7 -33v-16q0 -88 -65 -489l-2 -27 q10 -123 85 -160q87 -19 76 -104q-11 -84 -76 -69q-144 23 -195 148q-72 -124 -159 -230q-117 -139 -234 -139h-18q-68 0 -116 48q-64 -107 -111.5 -157.5t-86.5 -50.5q-58 0 -81 65l-2 16v8z" />
<glyph unicode="&#x6c0;" horiz-adv-x="996" arabic-form="isolated" />
<glyph unicode="&#x6a9;" horiz-adv-x="1802" arabic-form="isolated" d="M32 436q0 327 552 562l112 35h14q70 -13 70 -69v-11q0 -65 -119 -91q-475 -193 -475 -440q0 -200 419 -284q76 -14 154 -14q293 0 675 214q106 63 252 213q115 133 115 311l-7 102q23 62 63 62h21q62 0 70 -80l3 -56v-52q0 -398 -520 -675q-339 -154 -633 -154h-35 q-389 0 -626 192q-105 111 -105 235zM1810 1510v17q0 37 78 53l182 40q99 21 389 133q286 109 565 366l42 14q56 0 77 -63v-21q0 -38 -101 -133q-586 -394 -1005 -448q-14 -7 -160 -28q-52 0 -67 70z" />
<glyph unicode="&#x6cc;" horiz-adv-x="3200" arabic-form="isolated" d="M46 398v19q0 193 212 396q103 88 191 135q535 305 1142 305q301 0 370 -98q16 -25 16 -52v-10q0 -69 -94 -127l-23 -3h-8q-54 0 -73 64v19q0 8 15 29v3q-100 18 -214 18q-517 0 -998 -253q-120 -61 -246 -167q-158 -153 -158 -271v-12q0 -152 217 -287q91 -60 348 -126 q334 -80 707 -80q372 0 753 74q202 53 325 114q206 110 206 207q0 90 -251 260q-77 52 -133 114q-45 53 -45 105v3q0 121 281 180q304 84 449 84h36q79 0 96 -59l2 -19v-2q0 -61 -64 -77l-11 -2l-51 4q-184 0 -490 -100q-54 -29 -54 -41q6 -13 86 -66q306 -185 306 -365v-18 q0 -218 -338 -356q-97 -42 -312 -89q-351 -66 -697 -66h-46q-602 0 -1094 195q-358 160 -358 418z" />
<glyph unicode="&#x67e;" horiz-adv-x="1806" arabic-form="final" d="M27 299q0 183 268 349q109 57 235 91q192 45 326 45q51 0 75 -68v-28q0 -58 -78 -75h-53q-312 0 -523 -175q-93 -92 -93 -149q0 -133 366 -162l124 -2h2q579 24 751 139q173 116 197 238t69 156q15 7 36 7q76 -5 83 -81q-33 -102 -70 -176q-30 -105 -17 -151 q18 -64 86 -93q48 -4 68 -41q19 -34 8 -68q-11 -33 -43 -48q-33 -14 -98 9q-65 24 -110 95q-27 42 -32 103q-52 -48 -113 -76q-205 -96 -389 -122q-176 -25 -438 -25q-502 0 -614 210q-23 61 -23 98zM402 -354q0 66 108 88q152 24 560 48q36 0 52 -28l-26 -68 q-9 -33 -590 -92h-8q-96 0 -96 52zM651 -586q0 59 76 68q71 0 124 -96v-20q0 -49 -88 -68h-20q-75 0 -92 116z" />
<glyph unicode="&#x67e;" horiz-adv-x="600" arabic-form="initial" d="M-101 -363q0 65 108 88q152 24 560 48q36 0 52 -28l-26 -68q-9 -33 -590 -92h-8q-96 0 -96 52zM-84 79q4 70 76 81q171 3 248 73q78 70 97 203q19 132 74 167q0 5 30 7q107 -21 69 -161q-39 -183 -102 -263q-63 -78 -172 -138q-110 -59 -241 -47q-42 4 -61.5 23.5 t-17.5 54.5zM146 -553q0 59 76 68q73 0 124 -96v-20q0 -49 -88 -68h-20q-75 0 -92 116z" />
<glyph unicode="&#x67e;" horiz-adv-x="400" arabic-form="medial" d="M-346 -554q0 66 108 88q151 24 560 48q36 0 52 -28l-26 -68q-9 -33 -590 -92h-8q-96 0 -96 52zM-97 -786q0 58 76 68q73 0 124 -96v-20q0 -49 -88 -68h-20q-75 0 -92 116zM-75 85q5 74 80 86q119 0 180 186q62 184 98 223q35 38 78 24q83 -42 24 -162q-44 -119 -50 -139 q-8 -29 -6 -80q2 -50 71 -59q64 5 80 -73v-18q-16 -73 -83 -73q-165 -2 -182 122q-43 -67 -90 -94.5t-117 -30.5q-89 14 -83 88z" />
<glyph unicode="&#x686;" horiz-adv-x="1284" arabic-form="final" d="M-204 -595q0 378 534 767q188 146 334 231q24 9 24 28q-24 58 -156 116l-34 5h-7q-85 -15 -219 -197q-94 -185 -120 -205h-10q-10 0 -12 51v31q0 148 41 192q33 74 197 226q65 53 116 53q102 0 337 -180q31 -12 60 -12q31 0 110 36q32 7 65 7q148 0 258 -103 q14 -19 14 -29v-5q0 -67 -84 -99l-31 -4q-49 0 -125 12l4 -22q21 -129 195 -141q48 -4 68 -41q19 -35 8.5 -68t-43.5 -47t-128 6q-94 21 -175 90q-80 71 -83 195q0 24 2 56q-12 4 -19 5h-12q-87 0 -443 -245q-112 -73 -298 -253q-238 -254 -238 -444v-29q0 -266 216 -385 q146 -96 402 -93h5q235 9 536 83q22 12 22 20l-9 16v20q8 33 29 33q95 -45 134 -115l2 -12q-1 -67 -241 -108q-283 -46 -447 -46h-19q-281 0 -505 109q-33 12 -144 120q-78 98 -94 187q-17 70 -17 152v36zM402 -295q0 65 108 88q152 24 560 48q36 0 52 -28l-26 -68 q-9 -33 -590 -92h-8q-96 0 -96 52zM651 -527q0 59 76 68q73 0 124 -96v-20q0 -49 -88 -68h-20q-75 0 -92 116z" />
<glyph unicode="&#x686;" horiz-adv-x="1000" arabic-form="initial" d="M-73 73v11q0 50 61 71q90 0 199 50q198 75 371 183q-117 176 -186 176q-46 -1 -178 -190q-34 -43 -55 -43q-24 0 -56 56l-4 25q0 76 119 192q112 123 177 123h2q89 0 204 -159q73 -94 90 -111q87 60 122 60h18q40 0 66 -53q6 -14 6 -29q0 -60 -74 -131q-50 -38 -95 -38 l-36 9q-178 -107 -303 -165q-253 -105 -299 -105q-27 -5 -65 -5h-7q-51 0 -73 51zM107 -399q0 65 108 88q152 24 560 48q36 0 52 -28l-26 -68q-9 -33 -590 -92h-8q-96 0 -96 52zM356 -631q0 59 76 68q73 0 124 -96v-20q0 -49 -88 -68h-20q-75 0 -92 116z" />
<glyph unicode="&#x686;" horiz-adv-x="848" arabic-form="medial" d="M-75 73v11q0 50 61 71q172 3 310.5 59.5t259.5 173.5q-117 176 -186 176q-46 -1 -178 -190q-34 -43 -55 -43q-24 0 -56 56l-4 25q0 76 119 192q112 123 177 123h2q89 0 204 -159q73 -94 90 -111q87 60 122 60h18q40 0 66 -53q6 -14 6 -29q0 -60 -74 -131q-50 -38 -95 -38 l-36 9q-1 -1 -14 -11q17 -89 189 -101q48 -4 68 -41q19 -34 8 -68t-43 -47q-35 -14 -114 -4q-82 11 -161 110q-32 40 -49 78q-100 -68 -176 -105q-122 -60 -229 -74q-105 -12 -146 -12h-7q-50 0 -73 51zM72 -477q0 65 108 88q152 24 560 48q36 0 52 -28l-26 -68 q-9 -33 -590 -92h-8q-96 0 -96 52zM321 -709q0 59 76 68q73 0 124 -96v-20q0 -49 -88 -68h-20q-75 0 -92 116z" />
<glyph unicode="&#x698;" horiz-adv-x="517" arabic-form="final" d="M-397 -589q0 37 45 74q0 3 172 171q177 177 227 243q131 153 226 294q108 169 142 285q18 60 40.5 87t50.5 20q44 0 70 -45q7 -14 7 -32v-3q0 -26 -27 -95q-29 -75 -52 -123q-24 -54 -8 -88q16 -33 57 -47q41 -12 46 -74q0 -49 -50 -72q-12 -4 -25 -4h-10 q-121 7 -138 104q-164 -245 -425 -524q-158 -172 -188 -203q-39 -43 -52 -43q-11 -7 -31 -7q-47 0 -71 51q-6 14 -6 25v6zM249 1071q0 65 108 88q152 24 560 48q36 0 52 -28l-26 -68q-9 -35 -590 -92h-8q-96 0 -96 52zM528 1457q0 58 76 68q73 0 124 -96v-20q0 -49 -88 -68 h-20q-75 0 -92 116z" />
<glyph unicode="&#x6af;" horiz-adv-x="2087" arabic-form="final" d="M181 436q0 327 552 562l112 35h14q70 -13 70 -69v-11q0 -65 -119 -91q-475 -193 -475 -440q0 -200 419 -284q76 -14 154 -14q293 0 675 214q107 63 252 213q115 133 115 311l-7 102q23 62 63 62h21q62 0 70 -80l3 -56v-52q0 -110 -41 -212q-36 -215 -40 -296 q-5 -100 19 -135q26 -36 51 -33q48 -4 68 -40q19 -34 1 -70q-18 -35 -44 -44q-61 -20 -133 16q-39 20 -80 99q-41 78 -15 237l3 21q-121 -118 -309 -218q-339 -154 -633 -154h-35q-389 0 -626 192q-105 111 -105 235zM1832 1397v17q0 37 56 70q37 106 231 301 q209 210 287 210h21q58 0 101 -91l3 -28v-11q0 -65 -195 -227q-93 -66 -147 -66h-7q-28 0 -77 35h-4q-98 -95 -105 -112h4q117 0 441 127q326 128 605 384l42 14q56 0 77 -63v-21q0 -38 -101 -133q-586 -394 -1005 -448q-14 -7 -160 -28q-52 0 -67 70z" />
<glyph unicode="&#x6af;" horiz-adv-x="763" arabic-form="initial" d="M-82 70v23q0 69 85 69q123 0 217 130q96 131 104 247q9 115 15 251q8 137 41 169q34 34 72 4q38 -29 33 -161q-5 -142 -19 -316q-15 -184 -141 -329q-124 -145 -322 -157q-85 7 -85 70zM271 1306v17q0 37 56 70q37 106 231 301q208 210 287 210h21q58 0 101 -91l3 -28 v-11q0 -65 -195 -227q-93 -66 -147 -66h-7q-28 0 -77 35h-4q-98 -95 -105 -112h4q117 0 441 127q326 128 605 384l42 14q56 0 77 -63v-21q0 -38 -101 -133q-586 -394 -1005 -448q-14 -7 -160 -28q-52 0 -67 70z" />
<glyph unicode="&#x6af;" horiz-adv-x="405" arabic-form="medial" d="M-86 70v23q0 69 85 69q152 0 206 130q55 130 63 247q9 115 15 251q8 137 41 169q34 34 72 4q38 -29 33 -161q-5 -142 -19 -316q-7 -95 -37 -188l5 -40q10 -73 49 -88q74 -28 63 -103q-5 -36 -35 -56q-32 -21 -80.5 4t-93.5 94l-2 4q-89 -102 -280 -113q-85 7 -85 70z M258 1323v17q0 37 56 70q37 106 231 301q209 210 287 210h21q58 0 101 -91l3 -28v-11q0 -65 -195 -227q-93 -66 -147 -66h-7q-28 0 -77 35h-4q-98 -95 -105 -112h4q117 0 441 127q326 128 605 384l42 14q56 0 77 -63v-21q0 -38 -101 -133q-586 -394 -1005 -448 q-14 -7 -160 -28q-52 0 -67 70z" />
<glyph unicode="&#x622;" horiz-adv-x="378" arabic-form="final" d="M101 298v11q0 249 367 637l31 12h27q51 0 69 -62v-15q0 -41 -115 -159q-224 -266 -224 -401v-23q15 -136 115 -136q85 0 85 -69v-23q0 -63 -85 -70q-193 0 -262 213z" />
<glyph unicode="&#x623;" horiz-adv-x="370" arabic-form="final" d="M101 298v11q0 249 367 637l31 12h27q51 0 69 -62v-15q0 -41 -115 -159q-224 -266 -224 -401v-23q15 -136 115 -136q85 0 85 -69v-23q0 -63 -85 -70q-193 0 -262 213zM309 1054q0 39 46 73l80 67q23 32 23 60q0 43 -62 111q-24 31 -24 59q0 49 34 67q15 7 29 7 q23 0 52 -27q37 -34 37 -39l1 -4q0 -18 -28 -22h-5q-7 -4 -7 -13v-5q0 -23 47 -94q19 -31 19 -67q0 -48 -43 -79q-125 -125 -150 -125l-8 -1h-12q-24 0 -29 32z" />
<glyph unicode="&#x624;" horiz-adv-x="500" arabic-form="final" d="M-254 -452l1 4q4 56 76 100q77 64 165 150q125 119 187 219q-130 54 -116 173q-1 127 184 326q86 72 161 65q87 -7 114 -116q4 -35 1 -69q-9 -106 -67 -234q11 0 37 -2q48 -4 68 -41q19 -34 8 -68q-11 -33 -43 -48q-34 -14 -149 -8h-11q-24 -39 -70 -108 q-68 -97 -240 -254q-178 -162 -227 -175l-15 1q-37 3 -59 52q-7 12 -5 33zM87 854q0 39 46 73l80 67q23 32 23 60q0 43 -62 111q-24 32 -24 59q0 49 34 67q15 7 29 7q23 0 52 -27q37 -34 37 -39l1 -4q0 -18 -28 -22h-5q-7 -4 -7 -13v-5q0 -23 47 -94q19 -31 19 -67 q0 -48 -43 -79q-125 -125 -150 -125l-8 -1h-12q-24 0 -29 32zM228 207q0 -30 32 -36q26 19 71 139l19 80q-121 -119 -122 -183z" />
<glyph unicode="&#x625;" horiz-adv-x="370" arabic-form="final" d="M6 -463q0 39 46 73l80 67q23 32 23 60q0 43 -62 111q-24 32 -24 59q0 49 34 67q15 7 29 7q24 0 52 -27q37 -34 37 -39l1 -4q0 -18 -28 -22h-5q-7 -4 -7 -13v-5q0 -23 47 -94q19 -31 19 -67q0 -48 -43 -79q-125 -125 -150 -125l-8 -1h-12q-24 0 -29 32zM101 298v11 q0 249 367 637l31 12h27q51 0 69 -62v-15q0 -41 -115 -159q-224 -266 -224 -401v-23q15 -136 115 -136q85 0 85 -69v-23q0 -63 -85 -70q-193 0 -262 213z" />
<glyph unicode="&#x626;" horiz-adv-x="1808" arabic-form="final" d="M20 -167q0 188 297 455q216 173 363 230q300 142 453 142h31q73 0 85 -54l2 -12q0 -82 -168 -237l-21 -5h-10q-67 0 -81 83q4 19 38 62q-246 -42 -412 -152q-94 -50 -283 -223q-152 -167 -152 -294q0 -106 150 -201q134 -69 301 -69h48q229 0 529 92q130 48 232 112 q169 115 169 159q0 27 -152 104q-48 31 -48 73v3q0 72 83 80h3l123 -16l33 -3l140 3h7l34 2q55 0 76 -69v-14q0 -66 -81 -78h-31l-52 -3q26 -49 26 -87q0 -96 -204 -225q-130 -95 -346 -174q-302 -99 -601 -99q-463 0 -567 296q-14 54 -14 98v21zM1054 886q0 39 46 73l80 67 q23 32 23 60q0 43 -62 111q-24 31 -24 59q0 49 34 67q15 7 29 7q24 0 52 -27q37 -34 37 -39l1 -4q0 -18 -28 -22h-5q-7 -4 -7 -13v-5q0 -23 47 -94q19 -31 19 -67q0 -48 -43 -79q-125 -125 -150 -125l-8 -1h-12q-24 0 -29 32z" />
<glyph unicode="&#x626;" horiz-adv-x="600" arabic-form="initial" d="M-85 79q4 70 76 81q172 3 249 73q78 70 97 203q19 132 74 167q0 5 30 7q107 -21 69 -161q-39 -183 -102 -263q-63 -78 -172 -138q-110 -59 -242 -47q-42 4 -61.5 23.5t-17.5 54.5zM161 1102q0 39 46 73l80 67q23 32 23 60q0 43 -62 111q-24 31 -24 59q0 49 34 67 q15 7 29 7q23 0 52 -27q37 -34 37 -39l1 -4q0 -18 -28 -22h-5q-7 -4 -7 -13v-5q0 -23 47 -94q19 -31 19 -67q0 -48 -43 -79q-125 -125 -150 -125l-8 -1h-12q-24 0 -29 32z" />
<glyph unicode="&#x626;" horiz-adv-x="392" arabic-form="medial" d="M-84 85q5 74 80 86q118 0 180 186q62 184 98 223q34 38 78 24q82 -42 24 -162q-39 -104 -49 -139q-9 -27 -7 -80q2 -50 71 -59q64 5 80 -73v-18q-16 -73 -83 -73q-165 -2 -182 122q-43 -67 -90 -94.5t-117 -30.5q-89 14 -83 88zM128 884q0 39 46 73l80 67q23 32 23 60 q0 43 -62 111q-24 31 -24 59q0 49 34 67q15 7 29 7q24 0 52 -27q37 -34 37 -39l1 -4q0 -18 -28 -22h-5q-7 -4 -7 -13v-5q0 -23 47 -94q19 -31 19 -67q0 -48 -43 -79q-125 -125 -150 -125l-8 -1h-12q-24 0 -29 32z" />
<glyph unicode="&#x627;" horiz-adv-x="387" arabic-form="final" d="M101 298v11q0 249 367 637l31 12h27q51 0 69 -62v-15q0 -41 -115 -159q-224 -266 -224 -401v-23q15 -136 115 -136q85 0 85 -69v-23q0 -63 -85 -70q-193 0 -262 213z" />
<glyph unicode="&#x628;" horiz-adv-x="1811" arabic-form="final" d="M27 299q0 183 268 349q109 57 235 91q192 45 326 45q51 0 75 -68v-28q0 -58 -78 -75h-53q-312 0 -523 -175q-93 -92 -93 -149q0 -133 366 -162l124 -2h2q579 24 751 139q173 116 197 238t69 156q15 7 36 7q76 -5 83 -81q-33 -102 -70 -176q-30 -105 -17 -151 q18 -64 86 -93q48 -4 68 -41q19 -34 8 -68q-11 -33 -43 -48q-33 -14 -98 9q-65 24 -110 95q-27 42 -32 103q-52 -48 -113 -76q-205 -96 -389 -122q-176 -25 -438 -25q-502 0 -614 210q-23 61 -23 98zM642 -494q0 59 76 68q73 0 124 -96v-20q0 -49 -88 -68h-20q-75 0 -92 116 z" />
<glyph unicode="&#x628;" horiz-adv-x="580" arabic-form="initial" d="M-85 79q4 70 76 81q172 3 249 73q78 70 97 203q19 132 74 167q0 5 30 7q107 -21 69 -161q-39 -183 -102 -263q-63 -78 -172 -138q-110 -59 -242 -47q-42 4 -61.5 23.5t-17.5 54.5zM52 -387q0 59 76 68q73 0 124 -96v-20q0 -49 -88 -68h-20q-75 0 -92 116z" />
<glyph unicode="&#x628;" horiz-adv-x="398" arabic-form="medial" d="M-76 85q5 74 80 86q118 0 180 186q62 184 98 223q34 38 78 24q82 -42 24 -162q-39 -104 -49 -139q-9 -27 -7 -80q2 -50 71 -59q64 5 80 -73v-18q-16 -73 -83 -73q-165 -2 -182 122q-43 -67 -90 -94.5t-117 -30.5q-89 14 -83 88zM27 -414q0 59 76 68q73 0 124 -96v-20 q0 -49 -88 -68h-20q-75 0 -92 116z" />
<glyph unicode="&#x629;" horiz-adv-x="923" arabic-form="final" d="M1 -71q0 140 268 384q212 175 382 175q178 0 233 -130q16 -41 23 -163q6 -33 30 -33q65 -27 65 -73v-15q0 -62 -73 -80h-57q-80 0 -106 60q-24 30 -37 226q-15 58 -58 58l-15 2h-13q-157 0 -379 -243q-76 -97 -90 -145h3l35 5h7q81 -12 81 -78l2 -3v-2q0 -95 -150 -95 q-120 0 -148 102l-3 26v22zM284 663q0 39 46 73l80 67q23 32 23 60q0 43 -62 111q-24 32 -24 59q0 49 34 67q15 7 29 7q24 0 52 -27q37 -34 37 -39l1 -4q0 -18 -28 -22h-5q-7 -4 -7 -13v-5q0 -23 47 -94q19 -31 19 -67q0 -48 -43 -79q-125 -125 -150 -125l-8 -1h-12 q-24 0 -29 32z" />
<glyph unicode="&#x62a;" horiz-adv-x="1802" arabic-form="final" d="M23 299q0 183 268 349q109 57 235 91q192 45 326 45q51 0 75 -68v-28q0 -58 -78 -75h-53q-312 0 -523 -175q-93 -92 -93 -149q0 -133 366 -162l124 -2h2q579 24 751 139q173 116 197 238t69 156q15 7 36 7q76 -5 83 -81q-33 -102 -70 -176q-30 -105 -17 -151 q18 -64 86 -93q48 -4 68 -41q19 -34 8 -68q-11 -33 -43 -48q-33 -14 -98 9q-65 24 -110 95q-27 42 -32 103q-52 -48 -113 -76q-205 -96 -389 -122q-176 -25 -438 -25q-502 0 -614 210q-23 61 -23 98zM828 1138q0 66 108 88q152 24 560 48q36 0 52 -28l-26 -68 q-9 -35 -590 -92h-8q-96 0 -96 52z" />
<glyph unicode="&#x62a;" horiz-adv-x="600" arabic-form="initial" d="M-85 79q4 70 76 81q172 3 249 73q78 70 97 203q19 132 74 167q0 5 30 7q107 -21 69 -161q-39 -183 -102 -263q-63 -78 -172 -138q-110 -59 -242 -47q-42 4 -61.5 23.5t-17.5 54.5zM262 1063q0 66 79 88q110 24 407 48q26 0 38 -28l-19 -68q-6 -35 -429 -92h-6 q-70 0 -70 52z" />
<glyph unicode="&#x62a;" horiz-adv-x="400" arabic-form="medial" d="M-76 85q5 74 80 86q118 0 180 186q62 184 98 223q34 38 78 24q82 -42 24 -162q-39 -104 -49 -139q-9 -27 -7 -80q2 -50 71 -59q64 5 80 -73v-18q-16 -73 -83 -73q-165 -2 -182 122q-43 -67 -90 -94.5t-117 -30.5q-89 14 -83 88zM262 850q0 66 79 88l328 13q26 0 38 -28 l-19 -68q-6 -34 -350 -57h-6q-70 0 -70 52z" />
<glyph unicode="&#x62b;" horiz-adv-x="1811" arabic-form="final" d="M27 299q0 183 268 349q109 57 235 91q192 45 326 45q51 0 75 -68v-28q0 -58 -78 -75h-53q-312 0 -523 -175q-93 -92 -93 -149q0 -133 366 -162l124 -2h2q579 24 751 139q173 116 197 238t69 156q15 7 36 7q76 -5 83 -81q-33 -102 -70 -176q-30 -105 -17 -151 q18 -64 86 -93q48 -4 68 -41q19 -34 8 -68q-11 -33 -43 -48q-33 -14 -98 9q-65 24 -110 95q-27 42 -32 103q-52 -48 -113 -76q-205 -96 -389 -122q-176 -25 -438 -25q-502 0 -614 210q-23 61 -23 98zM810 1104q0 66 108 88q152 24 560 48q36 0 52 -28l-26 -68 q-9 -35 -590 -92h-8q-96 0 -96 52zM1089 1490q0 58 76 68q73 0 124 -96v-20q0 -49 -88 -68h-20q-75 0 -92 116z" />
<glyph unicode="&#x62b;" horiz-adv-x="600" arabic-form="initial" d="M-85 79q4 70 76 81q172 3 249 73q78 70 97 203q19 132 74 167q0 5 30 7q107 -21 69 -161q-39 -183 -102 -263q-63 -78 -172 -138q-110 -59 -242 -47q-42 4 -61.5 23.5t-17.5 54.5zM66 997q0 65 108 88q152 24 560 48q36 0 52 -28l-26 -68q-9 -35 -590 -92h-8 q-96 0 -96 52zM345 1383q0 58 76 68q73 0 124 -96v-20q0 -49 -88 -68h-20q-75 0 -92 116z" />
<glyph unicode="&#x62b;" horiz-adv-x="400" arabic-form="medial" d="M-76 85q5 74 80 86q118 0 180 186q62 184 98 223q34 38 78 24q82 -42 24 -162q-39 -104 -49 -139q-9 -27 -7 -80q2 -50 71 -59q64 5 80 -73v-18q-16 -73 -83 -73q-165 -2 -182 122q-43 -67 -90 -94.5t-117 -30.5q-89 14 -83 88zM61 897q0 65 108 88q155 25 417 26 q36 0 52 -28l-26 -68q-9 -36 -447 -70h-8q-96 0 -96 52zM260 1187q0 58 76 68q73 0 124 -96v-20q0 -49 -88 -68h-20q-75 0 -92 116z" />
<glyph unicode="&#x62c;" horiz-adv-x="1283" arabic-form="final" d="M-204 -595q0 378 534 767q188 146 334 231q24 9 24 28q-24 58 -156 116l-34 5h-7q-85 -15 -219 -197q-94 -185 -120 -205h-10q-10 0 -12 51v31q0 148 41 192q33 74 197 226q65 53 116 53q102 0 337 -180q31 -12 60 -12q31 0 110 36q32 7 65 7q148 0 258 -103 q14 -19 14 -29v-5q0 -67 -84 -99l-31 -4q-49 0 -125 12l4 -22q21 -129 195 -141q48 -4 68 -41q19 -35 8.5 -68t-43.5 -47t-128 6q-94 21 -175 90q-80 71 -83 195q0 24 2 56q-12 4 -19 5h-12q-87 0 -443 -245q-112 -73 -298 -253q-238 -254 -238 -444v-29q0 -266 216 -385 q146 -96 402 -93h5q235 9 536 83q22 12 22 20l-9 16v20q8 33 29 33q95 -45 134 -115l2 -12q-1 -67 -241 -108q-283 -46 -447 -46h-19q-281 0 -505 109q-33 12 -144 120q-78 98 -94 187q-17 70 -17 152v36zM642 -530q0 58 76 68q73 0 124 -96v-20q0 -49 -88 -68h-20 q-75 0 -92 116z" />
<glyph unicode="&#x62c;" horiz-adv-x="1000" arabic-form="initial" d="M-73 73v11q0 50 61 71q90 0 199 50q198 75 371 183q-117 176 -186 176q-46 -1 -178 -190q-34 -43 -55 -43q-24 0 -56 56l-4 25q0 76 119 192q112 123 177 123h2q89 0 204 -159q73 -94 90 -111q87 60 122 60h18q40 0 66 -53q6 -14 6 -29q0 -60 -74 -131q-50 -38 -95 -38 l-36 9q-178 -107 -303 -165q-253 -105 -299 -105q-27 -5 -65 -5h-7q-51 0 -73 51zM194 -383q0 59 76 68q73 0 124 -96v-20q0 -49 -88 -68h-20q-75 0 -92 116z" />
<glyph unicode="&#x62c;" horiz-adv-x="850" arabic-form="medial" d="M-75 73v11q0 50 61 71q172 3 310.5 59.5t259.5 173.5q-117 176 -186 176q-46 -1 -178 -190q-34 -43 -55 -43q-24 0 -56 56l-4 25q0 76 119 192q112 123 177 123h2q89 0 204 -159q73 -94 90 -111q87 60 122 60h18q40 0 66 -53q6 -14 6 -29q0 -60 -74 -131q-50 -38 -95 -38 l-36 9q-1 -1 -14 -11q17 -89 189 -101q48 -4 68 -41q19 -34 8 -68t-43 -47q-35 -14 -114 -4q-82 11 -161 110q-32 40 -49 78q-100 -68 -176 -105q-122 -60 -229 -74q-105 -12 -146 -12h-7q-50 0 -73 51zM216 -406q0 59 76 68q73 0 124 -96v-20q0 -49 -88 -68h-20 q-75 0 -92 116z" />
<glyph unicode="&#x62d;" horiz-adv-x="1288" arabic-form="final" d="M-204 -595q0 378 534 767q188 146 334 231q24 9 24 28q-24 58 -156 116l-34 5h-7q-85 -15 -219 -197q-94 -185 -120 -205h-10q-10 0 -12 51v31q0 148 41 192q33 74 197 226q65 53 116 53q102 0 337 -180q31 -12 60 -12q31 0 110 36q32 7 65 7q148 0 258 -103 q14 -19 14 -29v-5q0 -67 -84 -99l-31 -4q-49 0 -125 12l4 -22q21 -129 195 -141q48 -4 68 -41q19 -35 8.5 -68t-43.5 -47t-128 6q-94 21 -175 90q-80 71 -83 195q0 24 2 56q-12 4 -19 5h-12q-87 0 -443 -245q-112 -73 -298 -253q-238 -254 -238 -444v-29q0 -266 216 -385 q146 -96 402 -93h5q235 9 536 83q22 12 22 20l-9 16v20q8 33 29 33q95 -45 134 -115l2 -12q-1 -67 -241 -108q-283 -46 -447 -46h-19q-281 0 -505 109q-33 12 -144 120q-78 98 -94 187q-17 70 -17 152v36z" />
<glyph unicode="&#x62d;" horiz-adv-x="1000" arabic-form="initial" d="M-73 73v11q0 50 61 71q90 0 199 50q198 75 371 183q-117 176 -186 176q-46 -1 -178 -190q-34 -43 -55 -43q-24 0 -56 56l-4 25q0 76 119 192q112 123 177 123h2q89 0 204 -159q73 -94 90 -111q87 60 122 60h18q40 0 66 -53q6 -14 6 -29q0 -60 -74 -131q-50 -38 -95 -38 l-36 9q-178 -107 -303 -165q-253 -105 -299 -105q-27 -5 -65 -5h-7q-51 0 -73 51z" />
<glyph unicode="&#x62d;" horiz-adv-x="848" arabic-form="medial" d="M-75 73v11q0 50 61 71q172 3 310.5 59.5t259.5 173.5q-117 176 -186 176q-46 -1 -178 -190q-34 -43 -55 -43q-24 0 -56 56l-4 25q0 76 119 192q112 123 177 123h2q89 0 204 -159q73 -94 90 -111q87 60 122 60h18q40 0 66 -53q6 -14 6 -29q0 -60 -74 -131q-50 -38 -95 -38 l-36 9q-1 -1 -14 -11q17 -89 189 -101q48 -4 68 -41q19 -34 8 -68t-43 -47q-35 -14 -114 -4q-82 11 -161 110q-32 40 -49 78q-100 -68 -176 -105q-122 -60 -229 -74q-105 -12 -146 -12h-7q-50 0 -73 51z" />
<glyph unicode="&#x62e;" horiz-adv-x="1284" arabic-form="final" d="M-204 -595q0 378 534 767q188 146 334 231q24 9 24 28q-24 58 -156 116l-34 5h-7q-85 -15 -219 -197q-94 -185 -120 -205h-10q-10 0 -12 51v31q0 148 41 192q33 74 197 226q65 53 116 53q102 0 337 -180q31 -12 60 -12q31 0 110 36q32 7 65 7q148 0 258 -103 q14 -19 14 -29v-5q0 -67 -84 -99l-31 -4q-49 0 -125 12l4 -22q21 -129 195 -141q48 -4 68 -41q19 -35 8.5 -68t-43.5 -47t-128 6q-94 21 -175 90q-80 71 -83 195q0 24 2 56q-12 4 -19 5h-12q-87 0 -443 -245q-112 -73 -298 -253q-238 -254 -238 -444v-29q0 -266 216 -385 q146 -96 402 -93h5q235 9 536 83q22 12 22 20l-9 16v20q8 33 29 33q95 -45 134 -115l2 -12q-1 -67 -241 -108q-283 -46 -447 -46h-19q-281 0 -505 109q-33 12 -144 120q-78 98 -94 187q-17 70 -17 152v36zM354 1258q0 58 76 68q73 0 124 -96v-20q0 -49 -88 -68h-20 q-75 0 -92 116z" />
<glyph unicode="&#x62e;" horiz-adv-x="1000" arabic-form="initial" d="M-73 73v11q0 50 61 71q90 0 199 50q198 75 371 183q-117 176 -186 176q-46 -1 -178 -190q-34 -43 -55 -43q-24 0 -56 56l-4 25q0 76 119 192q112 123 177 123h2q89 0 204 -159q73 -94 90 -111q87 60 122 60h18q40 0 66 -53q6 -14 6 -29q0 -60 -74 -131q-50 -38 -95 -38 l-36 9q-178 -107 -303 -165q-253 -105 -299 -105q-27 -5 -65 -5h-7q-51 0 -73 51zM280 1155q0 58 76 68q73 0 124 -96v-20q0 -49 -88 -68h-20q-75 0 -92 116z" />
<glyph unicode="&#x62e;" horiz-adv-x="852" arabic-form="medial" d="M-75 73v11q0 50 61 71q172 3 310.5 59.5t259.5 173.5q-117 176 -186 176q-46 -1 -178 -190q-34 -43 -55 -43q-24 0 -56 56l-4 25q0 76 119 192q112 123 177 123h2q89 0 204 -159q73 -94 90 -111q87 60 122 60h18q40 0 66 -53q6 -14 6 -29q0 -60 -74 -131q-50 -38 -95 -38 l-36 9q-1 -1 -14 -11q17 -89 189 -101q48 -4 68 -41q19 -34 8 -68t-43 -47q-35 -14 -114 -4q-82 11 -161 110q-32 40 -49 78q-100 -68 -176 -105q-122 -60 -229 -74q-105 -12 -146 -12h-7q-50 0 -73 51zM319 1110q0 58 76 68q73 0 124 -96v-20q0 -49 -88 -68h-20 q-75 0 -92 116z" />
<glyph unicode="&#x62f;" horiz-adv-x="719" arabic-form="final" d="M-94 -96q0 57 85 85q134 63 212 126t184 194q109 135 170 298q63 166 108 176q45 11 72 -31q27 -40 -38 -209q-64 -166 -53 -275q12 -106 64 -112q56 0 75 -58l2 -14v-11q0 -48 -58 -70l-19 -2q-106 0 -149.5 58t-37.5 180h-2q-124 -186 -241 -266q-96 -73 -184 -118 q-65 -34 -84 -34h-17q-60 0 -87 57l-2 18v8z" />
<glyph unicode="&#x630;" horiz-adv-x="717" arabic-form="final" d="M-90 -96q0 57 85 85q134 63 212 126t184 194q109 135 170 298q63 166 108 176q45 11 72 -31q27 -40 -38 -209q-64 -166 -53 -275q12 -106 64 -112q56 0 75 -58l2 -14v-11q0 -48 -58 -70l-19 -2q-106 0 -149.5 58t-37.5 180h-2q-124 -186 -241 -266q-96 -73 -184 -118 q-65 -34 -84 -34h-17q-60 0 -87 57l-2 18v8zM501 1422q0 58 76 68q73 0 124 -96v-20q0 -49 -88 -68h-20q-75 0 -92 116z" />
<glyph unicode="&#x631;" horiz-adv-x="511" arabic-form="final" d="M-401 -589q0 37 45 74q0 3 172 171q177 177 227 243q131 153 226 294q108 169 142 285q18 60 40.5 87t50.5 20q44 0 70 -45q7 -14 7 -32v-3q0 -26 -27 -95q-29 -75 -52 -123q-24 -54 -8 -88q16 -33 57 -47q41 -12 46 -74q0 -49 -50 -72q-12 -4 -25 -4h-10 q-121 7 -138 104q-164 -245 -425 -524q-158 -172 -188 -203q-39 -43 -52 -43q-11 -7 -31 -7q-47 0 -71 51q-6 14 -6 25v6z" />
<glyph unicode="&#x632;" horiz-adv-x="517" arabic-form="final" d="M-397 -589q0 37 45 74q0 3 172 171q177 177 227 243q131 153 226 294q108 169 142 285q18 60 40.5 87t50.5 20q44 0 70 -45q7 -14 7 -32v-3q0 -26 -27 -95q-29 -75 -52 -123q-24 -54 -8 -88q16 -33 57 -47q41 -12 46 -74q0 -49 -50 -72q-12 -4 -25 -4h-10 q-121 7 -138 104q-164 -245 -425 -524q-158 -172 -188 -203q-39 -43 -52 -43q-11 -7 -31 -7q-47 0 -71 51q-6 14 -6 25v6zM440 1261q0 58 76 68q73 0 124 -96v-20q0 -49 -88 -68h-20q-75 0 -92 116z" />
<glyph unicode="&#x633;" horiz-adv-x="3182" arabic-form="final" d="M73 226q0 250 189 477q120 127 169 151q141 101 356 169q140 42 350 73q147 15 189 15q101 -15 101 -93v-12q0 -56 -68 -106l-33 -8q-46 0 -70 43q-202 -18 -366 -61q-170 -49 -280 -108q-94 -52 -186 -141q-180 -189 -180 -394v-5q0 -237 177 -409q268 -217 673 -217 q458 0 860 279q135 98 176 246l7 35q-23 45 -25 117v20q0 79 45 101q29 12 43 12q98 0 100 -188q36 -61 208 -60q207 4 678 5q95 -3 95 -75q0 -84 -93 -92q-855 -55 -938 26q-154 -319 -614 -504q-230 -78 -441 -78h-68q-399 0 -749 244q-111 86 -181 184q-124 178 -124 354 z" />
<glyph unicode="&#x633;" horiz-adv-x="1310" arabic-form="initial" d="M-90 86q13 76 77 76q218 -41 496 12q278 54 457 200q178 145 212 -7v-3q5 -66 -172 -174q-174 -107 -466 -163q-286 -55 -435 -41q-146 14 -146 47q-23 21 -23 53z" />
<glyph unicode="&#x633;" horiz-adv-x="1104" arabic-form="medial" d="M-20 0v156q591 -38 1164 0v-156q-574 -46 -1164 0z" />
<glyph unicode="&#x634;" horiz-adv-x="3178" arabic-form="final" d="M69 226q0 250 189 477q120 127 169 151q141 101 356 169q140 42 350 73q147 15 189 15q101 -15 101 -93v-12q0 -56 -68 -106l-33 -8q-46 0 -70 43q-202 -18 -366 -61q-170 -49 -280 -108q-94 -52 -186 -141q-180 -189 -180 -394v-5q0 -237 177 -409q268 -217 673 -217 q458 0 860 279q135 98 176 246l7 35q-23 45 -25 117v20q0 79 45 101q29 12 43 12q98 0 100 -188q36 -61 208 -60q207 4 678 5q95 -3 95 -75q0 -84 -93 -92q-855 -55 -938 26q-154 -319 -614 -504q-230 -78 -441 -78h-68q-399 0 -749 244q-111 86 -181 184q-124 178 -124 354 zM2473 932q0 66 108 88q152 24 560 48q36 0 52 -28l-26 -68q-9 -35 -590 -92h-8q-96 0 -96 52zM2752 1440q0 58 76 68q73 0 124 -96v-20q0 -49 -88 -68h-20q-75 0 -92 116z" />
<glyph unicode="&#x634;" horiz-adv-x="1297" arabic-form="initial" d="M-90 86q13 76 77 76q218 -41 496 12q278 54 457 200q178 145 212 -7v-3q5 -66 -172 -174q-174 -107 -466 -163q-286 -55 -435 -41q-146 14 -146 47q-23 21 -23 53zM358 907q0 65 108 88q152 24 560 48q36 0 52 -28l-26 -68q-9 -35 -590 -92h-8q-96 0 -96 52zM641 1441 q0 58 76 68q73 0 124 -96v-20q0 -49 -88 -68h-20q-75 0 -92 116z" />
<glyph unicode="&#x634;" horiz-adv-x="1083" arabic-form="medial" d="M-36 0v156q599 -38 1164 -1v-155q-574 -48 -1164 0zM241 694q0 66 108 88q152 24 560 48q36 0 52 -28l-26 -68q-9 -35 -590 -92h-8q-96 0 -96 52zM524 1228q0 58 76 68q73 0 124 -96v-20q0 -49 -88 -68h-20q-75 0 -92 116z" />
<glyph unicode="&#x635;" horiz-adv-x="3060" arabic-form="final" d="M98 1q0 397 708 664q256 82 520 82h58q72 0 86 -65v-17q-16 -69 -62 -69h-92q-503 0 -924 -328q-143 -131 -143 -277q0 -233 318 -390q161 -58 352 -58h75q366 0 770 260q189 131 270 349l14 44q-21 57 -21 127q8 167 52 167q0 11 48 17q92 -17 92 -119l3 -35l-13 -136 q17 -35 48 -35q32 70 232 267q238 202 421 202q137 0 175 -137l3 -34v-24q0 -122 -159 -253l14 -18q24 -29 116 -27q48 -4 68 -41q19 -34 1 -71q-18 -35 -44 -44q-25 -7 -92 0q-67 9 -116 45q-43 31 -65 70l-34 -20q-179 -93 -377 -93h-3q-49 0 -92 18q-87 -147 -93 -147h-3 q-48 17 -48 86v6q0 35 24 85l-28 14q-105 -289 -431 -472q-322 -177 -691 -177q-650 0 -875 352q-62 107 -62 232zM2383 148h17q258 0 445 181q96 92 96 137q0 35 -27 35h-11q-147 0 -479 -298l-41 -51v-4z" />
<glyph unicode="&#x635;" horiz-adv-x="1300" arabic-form="initial" d="M-82 70v10q0 36 51 58q54 4 54 12q17 11 23 40q5 25 16 107q10 72 37 139q27 63 87 66q60 5 80 -52q20 -56 -4 -120q-22 -64 -48 -114q11 -27 35 -38l17 -4q37 63 146 182q96 98 151 141q224 173 388 173q141 0 183 -128q10 -31 10 -62q0 -182 -288 -367 q-203 -122 -444 -122q-38 0 -95 18l-91 -151q-5 -5 -11 -5q-23 0 -44 64l-4 31q1 44 27 93q-6 0 -31 15q-44 -56 -114 -56l-35 -1h-20q-54 0 -72 51q-4 11 -4 20zM397 141l33 -1q259 0 458 191q76 66 94 116q6 16 6 29v7q0 31 -28 31h-12q-126 0 -407 -227 q-97 -81 -144 -145v-1z" />
<glyph unicode="&#x635;" horiz-adv-x="1104" arabic-form="medial" d="M-78 70v10q0 36 51 58q54 4 54 12q17 11 23 40q5 25 16 107q10 72 37 139q27 63 87 66q60 5 80 -52q20 -56 -4 -120q-22 -64 -48 -114q11 -27 35 -38l17 -4q37 63 146 182q96 98 151 141q224 173 388 173q141 0 183 -128q10 -31 10 -62q0 -141 -176 -287l6 -8 q24 -29 116 -27q48 -4 68 -41q19 -34 1 -71q-18 -35 -44 -44q-25 -7 -92 0q-67 9 -116 45q-40 29 -60 61q-199 -117 -435 -117q-38 0 -95 18l-91 -151q-5 -5 -11 -5q-23 0 -44 64l-4 31q1 44 27 93q-6 0 -31 15q-44 -56 -114 -56l-35 -1h-20q-54 0 -72 51q-4 11 -4 20z M401 141l33 -1q259 0 458 191q76 66 94 116q6 16 6 29v7q0 31 -28 31h-12q-126 0 -407 -227q-97 -81 -144 -145v-1z" />
<glyph unicode="&#x636;" horiz-adv-x="3061" arabic-form="final" d="M102 1q0 397 708 664q256 82 520 82h58q72 0 86 -65v-17q-16 -69 -62 -69h-92q-503 0 -924 -328q-143 -131 -143 -277q0 -233 318 -390q161 -58 352 -58h75q366 0 770 260q189 131 270 349l14 44q-21 57 -21 127q8 167 52 167q0 11 48 17q92 -17 92 -119l3 -35l-13 -136 q17 -35 48 -35q32 70 232 267q238 202 421 202q137 0 175 -137l3 -34v-24q0 -122 -159 -253l14 -18q24 -29 116 -27q48 -4 68 -41q19 -34 1 -71q-18 -35 -44 -44q-25 -7 -92 0q-67 9 -116 45q-43 31 -65 70l-34 -20q-179 -93 -377 -93h-3q-49 0 -92 18q-87 -147 -93 -147h-3 q-48 17 -48 86v6q0 35 24 85l-28 14q-105 -289 -431 -472q-322 -177 -691 -177q-650 0 -875 352q-62 107 -62 232zM2323 1197q0 58 76 68q73 0 124 -96v-20q0 -49 -88 -68h-20q-75 0 -92 116zM2387 148h17q258 0 445 181q96 92 96 137q0 35 -27 35h-11q-147 0 -479 -298 l-41 -51v-4z" />
<glyph unicode="&#x636;" horiz-adv-x="1300" arabic-form="initial" d="M-86 70v10q0 36 51 58q54 4 54 12q17 11 23 40q5 25 16 107q10 72 37 139q27 63 87 66q60 5 80 -52q20 -56 -4 -120q-22 -64 -48 -114q11 -27 35 -38l17 -4q37 63 146 182q96 98 151 141q224 173 388 173q141 0 183 -128q10 -31 10 -62q0 -182 -288 -367 q-203 -122 -444 -122q-38 0 -95 18l-91 -151q-5 -5 -11 -5q-23 0 -44 64l-4 31q1 44 27 93q-6 0 -31 15q-44 -56 -114 -56l-35 -1h-20q-54 0 -72 51q-4 11 -4 20zM393 141l33 -1q259 0 458 191q76 66 94 116q6 16 6 29v7q0 31 -28 31h-12q-126 0 -407 -227 q-97 -81 -144 -145v-1zM536 1227q0 58 76 68q73 0 124 -96v-20q0 -49 -88 -68h-20q-75 0 -92 116z" />
<glyph unicode="&#x636;" horiz-adv-x="1100" arabic-form="medial" d="M-78 70v10q0 36 51 58q54 4 54 12q17 11 23 40q5 25 16 107q10 72 37 139q27 63 87 66q60 5 80 -52q20 -56 -4 -120q-22 -64 -48 -114q11 -27 35 -38l17 -4q37 63 146 182q96 98 151 141q224 173 388 173q141 0 183 -128q10 -31 10 -62q0 -141 -176 -287l6 -8 q24 -29 116 -27q48 -4 68 -41q19 -34 1 -71q-18 -35 -44 -44q-25 -7 -92 0q-67 9 -116 45q-40 29 -60 61q-199 -117 -435 -117q-38 0 -95 18l-91 -151q-5 -5 -11 -5q-23 0 -44 64l-4 31q1 44 27 93q-6 0 -31 15q-44 -56 -114 -56l-35 -1h-20q-54 0 -72 51q-4 11 -4 20z M401 141l33 -1q259 0 458 191q76 66 94 116q6 16 6 29v7q0 31 -28 31h-12q-126 0 -407 -227q-97 -81 -144 -145v-1zM615 1284q0 58 76 68q73 0 124 -96v-20q0 -49 -88 -68h-20q-75 0 -92 116z" />
<glyph unicode="&#x637;" horiz-adv-x="1049" arabic-form="final" d="M71 76q12 81 77 81l99 3v22q0 37 164 228q142 151 202 197l-7 31q0 170 73 636q50 277 78 373q30 36 69 36q56 0 79 -62v-24q-99 -461 -128 -814l-5 -57h2q94 57 162 57q101 0 140 -112l5 -40q15 -291 -146 -443q26 -26 113 -24q48 -4 68 -41q19 -34 1 -71 q-18 -35 -44 -44q-25 -7 -92 0q-67 9 -116 45q-33 24 -53 50q-217 -114 -539 -103q-163 -1 -163 10q-39 28 -39 66zM432 182h3q156 -28 317 71t179 242q9 72 -5 100.5t-52 14.5q-73 -28 -246 -193q-159 -174 -196 -235z" />
<glyph unicode="&#x637;" horiz-adv-x="1055" arabic-form="initial" d="M-80 76q12 81 77 81l99 3v22q0 37 164 228q142 151 202 197l-7 31q0 170 73 636q50 277 78 373q30 36 69 36q56 0 79 -62v-24q-99 -461 -128 -814l-5 -57h2q95 57 162 57q101 0 140 -112l5 -40q18 -348 -214 -496q-231 -149 -594 -135q-163 -1 -163 10q-39 28 -39 66z M281 182h3q156 -28 317 71t179 242q9 72 -5 100.5t-52 14.5q-73 -28 -246 -193q-159 -174 -196 -235z" />
<glyph unicode="&#x637;" horiz-adv-x="902" arabic-form="medial" d="M-80 76q12 81 77 81l99 3v22q0 37 164 228q142 151 202 197l-7 31q0 170 73 636q50 277 78 373q30 36 69 36q56 0 79 -62v-24q-99 -461 -128 -814l-5 -57h2q95 57 162 57q101 0 140 -112l5 -40q15 -291 -146 -443q26 -26 113 -24q48 -4 68 -41q19 -34 1 -71 q-18 -35 -44 -44q-25 -7 -92 0q-67 9 -116 45q-33 24 -53 50q-217 -114 -539 -103q-163 -1 -163 10q-39 28 -39 66zM281 182h3q156 -28 317 71t179 242q9 72 -5 100.5t-52 14.5q-73 -28 -246 -193q-159 -174 -196 -235z" />
<glyph unicode="&#x638;" horiz-adv-x="1043" arabic-form="final" d="M71 76q12 81 77 81l99 3v22q0 37 164 228q142 151 202 197l-7 31q0 170 73 636q50 277 78 373q30 36 69 36q56 0 79 -62v-24q-99 -461 -128 -814l-5 -57h2q94 57 162 57q101 0 140 -112l5 -40q15 -291 -146 -443q26 -26 113 -24q48 -4 68 -41q19 -34 1 -71 q-18 -35 -44 -44q-25 -7 -92 0q-67 9 -116 45q-33 24 -53 50q-217 -114 -539 -103q-163 -1 -163 10q-39 28 -39 66zM432 182h3q156 -28 317 71t179 242q9 72 -5 100.5t-52 14.5q-73 -28 -246 -193q-159 -174 -196 -235zM960 1431q0 58 76 68q73 0 124 -96v-20q0 -49 -88 -68 h-20q-75 0 -92 116z" />
<glyph unicode="&#x638;" horiz-adv-x="1048" arabic-form="initial" d="M-80 76q12 81 77 81l99 3v22q0 37 164 228q142 151 202 197l-7 31q0 170 73 636q50 277 78 373q30 36 69 36q56 0 79 -62v-24q-99 -461 -128 -814l-5 -57h2q95 57 162 57q101 0 140 -112l5 -40q18 -348 -214 -496q-231 -149 -594 -135q-163 -1 -163 10q-39 28 -39 66z M281 182h3q156 -28 317 71t179 242q9 72 -5 100.5t-52 14.5q-73 -28 -246 -193q-159 -174 -196 -235zM960 1431q0 58 76 68q73 0 124 -96v-20q0 -49 -88 -68h-20q-75 0 -92 116z" />
<glyph unicode="&#x638;" horiz-adv-x="976" arabic-form="medial" d="M0 76q12 81 77 81l99 3v22q0 37 164 228q142 151 202 197l-7 31q0 170 73 636q50 277 78 373q30 36 69 36q56 0 79 -62v-24q-99 -461 -128 -814l-5 -57h2q95 57 162 57q101 0 140 -112l5 -40q15 -291 -146 -443q26 -26 113 -24q48 -4 68 -41q19 -34 1 -71 q-18 -35 -44 -44q-25 -7 -92 0q-67 9 -116 45q-33 24 -53 50q-217 -114 -539 -103q-163 -1 -163 10q-39 28 -39 66zM361 182h3q156 -28 317 71t179 242q9 72 -5 100.5t-52 14.5q-73 -28 -246 -193q-159 -174 -196 -235zM960 1431q0 58 76 68q73 0 124 -96v-20q0 -49 -88 -68 h-20q-75 0 -92 116z" />
<glyph unicode="&#x639;" horiz-adv-x="913" arabic-form="final" d="M-168 -578q0 333 440 653q142 93 246 140l64 25v1q48 30 65 53v15q0 49 -86 49l-124 -8q-95 14 -95 75v30q0 72 159 69h164q294 0 294 -83v-19q0 -105 -109 -218l-41 -34q78 -15 116 -7q71 -27 71 -76v-11q0 -65 -83 -79q-205 -4 -308 75q-110 4 -363 -193 q-138 -126 -178 -185q-104 -151 -104 -253v-27q0 -109 101 -221q103 -112 313 -161q210 -51 493 -1q288 50 346 71q63 21 138 21h8q90 0 90 -81q0 -65 -149 -119q-15 -8 -34 4t-31 37q-12 24 -252 -37q-239 -61 -597 -31q-357 28 -513 335q-41 97 -41 191z" />
<glyph unicode="&#x639;" horiz-adv-x="792" arabic-form="initial" d="M-83 73q16 73 83 78l48 2h30l3 3h2q-17 51 -17 82q0 231 371 468l33 5q52 0 77 -54l2 -18q0 -58 -123 -112q-160 -101 -184 -185l-10 -69q10 -84 25 -84l325 105l36 5h23q53 0 67 -59v-31q0 -44 -113 -79q-344 -142 -595 -133q-74 8 -83 76z" />
<glyph unicode="&#x639;" horiz-adv-x="730" arabic-form="medial" d="M-87 83q0 83 117 80q177 -1 361 78q48 30 65 53v15q0 49 -86 49l-124 -8q-95 14 -95 75v30q0 72 159 69h164q294 0 294 -83v-19q0 -105 -109 -218l-41 -34q78 -15 116 -7q71 -27 71 -76v-11q0 -65 -83 -79q-205 -4 -308 75q-221 -80 -418 -72h-3q-65 0 -80 83z" />
<glyph unicode="&#x63a;" horiz-adv-x="870" arabic-form="final" d="M-215 -578q0 333 440 653q142 93 246 140l64 25v1q48 30 65 53v15q0 49 -86 49l-124 -8q-95 14 -95 75v30q0 72 159 69h164q294 0 294 -83v-19q0 -105 -109 -218l-41 -34q78 -15 116 -7q71 -27 71 -76v-11q0 -65 -83 -79q-205 -4 -308 75q-110 4 -363 -193 q-138 -126 -178 -185q-104 -151 -104 -253v-27q0 -109 101 -221q103 -112 313 -161q210 -51 493 -1q288 50 346 71q63 21 138 21h8q90 0 90 -81q0 -65 -149 -119q-15 -8 -34 4t-31 37q-12 24 -252 -37q-239 -61 -597 -31q-357 28 -513 335q-41 97 -41 191zM582 965 q0 58 76 68q73 0 124 -96v-20q0 -49 -88 -68h-20q-75 0 -92 116z" />
<glyph unicode="&#x63a;" horiz-adv-x="792" arabic-form="initial" d="M-83 73q16 73 83 78l48 2h30l3 3h2q-17 51 -17 82q0 231 371 468l33 5q52 0 77 -54l2 -18q0 -58 -123 -112q-160 -101 -184 -185l-10 -69q10 -84 25 -84l325 105l36 5h23q53 0 67 -59v-31q0 -44 -113 -79q-344 -142 -595 -133q-74 8 -83 76zM354 1274q0 58 76 68 q73 0 124 -96v-20q0 -49 -88 -68h-20q-75 0 -92 116z" />
<glyph unicode="&#x63a;" horiz-adv-x="851" arabic-form="medial" d="M-90 83q0 83 117 80q177 -1 361 78q48 30 65 53v15q0 49 -125 49l-158 -11q-94 13 -94 75v30q0 72 192 72h203q294 0 294 -83v-19q0 -105 -109 -218l-41 -34q79 -15 210 -6q50 -29 50 -77v-11q0 -64 -83 -79q-278 -5 -381 75q-221 -80 -418 -72h-3q-65 0 -80 83z M376 1104q0 58 76 68q73 0 124 -96v-20q0 -49 -88 -68h-20q-75 0 -92 116z" />
<glyph unicode="&#x641;" horiz-adv-x="2270" arabic-form="final" d="M71 383q0 291 411 525q129 74 374 161q134 44 151 44h5q85 -12 85 -81v-15q0 -67 -117 -89q-413 -137 -572 -266q-171 -116 -171 -270v-24q0 -286 461 -414q120 -32 262 -32q420 0 934 255q-15 63 -15 104q0 222 181 364q74 52 134 52h7q122 0 159 -139l5 -52v-5 q0 -137 -122 -292q-32 -30 -49 -45q34 -7 83 -6q48 -4 68 -41q19 -34 1 -71q-18 -35 -44 -44q-28 -8 -117 -1q-93 8 -143 32q-12 5 -24 14q-130 -72 -260 -122q-390 -139 -733 -139q-425 0 -743 222q-211 165 -211 375zM1675 1344q0 58 76 68q73 0 124 -96v-20 q0 -49 -88 -68h-20q-75 0 -92 116zM2050 308q0 -30 8 -30q100 85 119 164q14 26 14 59v5l-2 13q-84 -40 -131 -159q-8 -27 -8 -52z" />
<glyph unicode="&#x641;" horiz-adv-x="707" arabic-form="initial" d="M-90 67v23q0 66 90 75q96 0 146 15v3q-30 47 -30 90v19q0 121 232 325q98 79 183 79h38q122 0 138 -157q0 -309 -494 -509q-89 -30 -202 -30h-26q-75 16 -75 67zM247 288q0 -38 33 -60q90 35 221 165q56 74 56 112q0 14 -22 30h-4q-75 0 -258 -180q-26 -29 -26 -48v-19z M418 1340q0 58 76 68q73 0 124 -96v-20q0 -49 -88 -68h-20q-75 0 -92 116z" />
<glyph unicode="&#x641;" horiz-adv-x="601" arabic-form="medial" d="M-90 67v23q0 66 90 75q96 0 146 15v3q-30 47 -30 90v19q0 121 232 325q98 79 183 79h38q122 0 138 -157q0 -212 -232 -372q56 -9 136 -3q48 -4 68 -41q19 -34 8 -68q-11 -33 -43 -48q-11 -5 -25 -7t-26.5 -2.5t-35.5 1.5t-38.5 4t-49 6.5t-54.5 7.5q-81 10 -136 41 q-58 -25 -66 -28q-89 -30 -202 -30h-26q-75 16 -75 67zM247 288q0 -38 33 -60q90 35 221 165q56 74 56 112q0 14 -22 30h-4q-75 0 -258 -180q-26 -29 -26 -48v-19zM496 1062q0 58 76 68q73 0 124 -96v-20q0 -49 -88 -68h-20q-75 0 -92 116z" />
<glyph unicode="&#x642;" horiz-adv-x="2474" arabic-form="final" d="M-34 26v28q0 113 61 263q38 90 149 210q148 136 246 184q172 105 429 195q345 123 761 123q361 -7 361 -22q45 -25 45 -77q0 -53 -62 -76l-14 -2q-221 13 -337 13q-485 0 -902 -193q-168 -73 -324 -181q-185 -135 -240 -307q-19 -75 -19 -148q0 -199 248 -387 q268 -178 616 -178h22q381 0 804 197q101 51 206 130q98 84 141 143l47 67v2h-2q-140 0 -195 132q-15 41 -15 85v13q0 173 154 264q56 25 103 25h9q127 0 188 -136q18 -51 18 -112q0 -57 -18 -124q8 1 27 1q48 -4 68 -41q19 -34 1 -71q-18 -35 -44 -44q-21 -7 -111 -2 l-25 -49q-45 -88 -167 -214q-112 -105 -212 -160q-99 -62 -293 -131q-309 -100 -623 -100q-498 0 -857 266q-244 204 -244 414zM1884 1406q0 66 108 88q152 24 560 48q36 0 52 -28l-26 -68q-9 -35 -590 -92h-8q-96 0 -96 52zM2156 227q0 -40 29 -54q33 -16 60 -16h4 q47 0 59 122l2 15q-9 71 -61 71q-55 0 -86 -78q-7 -22 -7 -50v-10z" />
<glyph unicode="&#x642;" horiz-adv-x="701" arabic-form="initial" d="M-90 67v23q0 66 90 75q96 0 146 15v3q-30 47 -30 90v19q0 121 232 325q98 79 183 79h38q122 0 138 -157q0 -309 -494 -509q-89 -30 -202 -30h-26q-75 16 -75 67zM110 1328q0 66 108 88q152 24 560 48q36 0 52 -28l-26 -68q-9 -35 -590 -92h-8q-96 0 -96 52zM247 288 q0 -38 33 -60q90 35 221 165q56 74 56 112q0 14 -22 30h-4q-75 0 -258 -180q-26 -29 -26 -48v-19z" />
<glyph unicode="&#x642;" horiz-adv-x="600" arabic-form="medial" d="M-90 67v23q0 66 90 75q96 0 146 15v3q-30 47 -30 90v19q0 121 232 325q98 79 183 79h38q122 0 138 -157q0 -212 -232 -372q56 -9 136 -3q48 -4 68 -41q19 -34 8 -68q-11 -33 -43 -48q-11 -5 -25 -7t-26.5 -2.5t-35.5 1.5t-38.5 4t-49 6.5t-54.5 7.5q-81 10 -136 41 q-58 -25 -66 -28q-89 -30 -202 -30h-26q-75 16 -75 67zM241 1072q0 66 108 88l373 13q36 0 52 -28l-26 -68q-9 -35 -403 -57h-8q-96 0 -96 52zM247 288q0 -38 33 -60q90 35 221 165q56 74 56 112q0 14 -22 30h-4q-75 0 -258 -180q-26 -29 -26 -48v-19z" />
<glyph unicode="&#x643;" horiz-adv-x="2098" arabic-form="final" d="M172 436q0 328 552 563l112 35h14q70 -13 70 -70v-11q0 -64 -119 -90q-475 -195 -475 -441q0 -199 419 -283q76 -14 154 -14q293 0 675 213q106 64 252 213q115 134 115 312l-7 101q22 63 63 63h21q62 0 70 -81l3 -55v-53q0 -75 -20 -149l-2 -13q-45 -254 -49 -346 q-5 -100 19 -135q25 -36 50 -33q48 -4 68 -40q19 -34 1 -70q-18 -35 -44 -44q-61 -20 -132 16q-39 20 -80 99q-40 78 -15 237q1 16 6 33q-125 -125 -322 -230q-339 -154 -633 -154h-35q-390 0 -626 193q-105 110 -105 234zM1972 1397v18q0 37 78 53l182 39q99 21 389 133 q286 109 565 366l42 14q56 0 77 -63v-21q0 -37 -101 -132q-585 -393 -1005 -449q-14 -7 -160 -28q-52 0 -67 70z" />
<glyph unicode="&#x643;" horiz-adv-x="691" arabic-form="initial" d="M-78 70v23q0 69 85 69q123 0 247 102q125 103 139 243q13 139 -15 279q-29 140 6 173q34 34 72 4q36 -28 68 -165q31 -133 11 -344q-19 -206 -176 -325q-154 -117 -352 -129q-85 7 -85 70zM400 1276q-16 69 68 111l297 149q211 106 503 320l42 14q56 0 77 -63v-21 q0 -40 -246 -188q-212 -129 -397 -235q-157 -89 -240 -121q-87 -35 -104 34z" />
<glyph unicode="&#x643;" horiz-adv-x="543" arabic-form="medial" d="M-87 70v23q0 69 85 69q122 0 247 102q125 103 139 243q14 139 -15 279t6 173q34 34 72 4q36 -28 68 -165q31 -133 11 -344q-7 -73 -34 -141q1 -11 7 -55q10 -73 49 -88q74 -28 63 -103q-5 -36 -35 -56q-32 -21 -80.5 4t-93.5 94q-14 21 -21 45q-14 -13 -31 -25 q-154 -117 -352 -129q-85 7 -85 70zM391 1276q-16 69 68 111l297 149q211 106 503 320l42 14q56 0 77 -63v-21q0 -40 -246 -188q-212 -129 -397 -235q-157 -89 -240 -121q-87 -35 -104 34z" />
<glyph unicode="&#x644;" horiz-adv-x="2133" arabic-form="final" d="M27 -4q0 175 193 367q188 166 357 215q213 66 348 66q145 0 169 -96l3 -28q-14 -104 -96 -104q-54 0 -66 56h-5q-149 0 -378 -86q-380 -191 -380 -426q0 -174 263 -261q109 -33 266 -33h3q838 0 1166 646q87 145 87 670v200l-3 23q0 55 66 81l23 2q62 0 83 -73v-5l3 -206 q0 -418 -53 -632q-8 -82 2 -118q19 -68 96 -97q21 -10 34 -39.5t11 -61.5q-1 -31 -44 -48q-43 -18 -91 6.5t-94 94.5q-11 17 -19 39q-68 -99 -197 -233q-406 -396 -961 -396h-68q-348 0 -563 160q-155 131 -155 286v31z" />
<glyph unicode="&#x644;" horiz-adv-x="400" arabic-form="initial" d="M-73 70v23q0 69 85 69q99 0 134 104t21 260q-16 186 -26 272q-13 115 13 144t72 17q46 -10 67 -147q20 -131 25 -353q4 -215 -64 -332q-67 -115 -242 -127q-85 7 -85 70z" />
<glyph unicode="&#x644;" horiz-adv-x="343" arabic-form="medial" d="M-73 70v23q0 69 85 69q100 0 128 130q30 137 37 247q9 115 15 251q8 137 41 169q34 34 72 4q38 -29 33 -161q-5 -142 -19 -316q-9 -110 -35 -210l3 -18q10 -73 49 -88q40 -15 54 -41q16 -24 9 -61.5t-35 -56.5t-79 3q-42 20 -80 74q-67 -81 -193 -88q-85 7 -85 70z" />
<glyph unicode="&#x645;" horiz-adv-x="1458" arabic-form="final" d="M78 12q0 329 480 563q350 153 603 153q169 0 269 -150q54 -90 54 -198q0 -85 -44 -162q-3 -56 25 -62q39 -9 54 -46q17 -36 3 -68q-13 -32 -37.5 -39t-78.5 10q-47 18 -76 81q-34 -26 -53 -39q-97 -52 -165 -52h-28q-108 0 -198 101q-68 86 -68 209v5q0 101 119 250v2 q-115 -33 -228 -82q-125 -56 -250 -144q-228 -177 -228 -351q0 -254 231 -497q19 -20 19 -47v-15q0 -60 -64 -79l-16 -1q-44 0 -85 59q-168 204 -219 438q-19 95 -19 161zM975 300q0 -118 112 -160l33 -5q74 0 170 102q61 80 61 148q0 82 -98 160q-38 19 -55 19 q-62 0 -174 -130q-49 -71 -49 -122v-12z" />
<glyph unicode="&#x645;" horiz-adv-x="706" arabic-form="initial" d="M-77 72q-3 55 29 75q31 20 69 25q37 4 83 61q48 59 140 195q94 139 203 139h5q64 0 106 -63q44 -63 39 -183q-3 -120 -66 -220q-63 -101 -203 -104q-124 11 -171 102q-92 -110 -169 -98q-63 17 -65 71zM250 195q12 -33 69 -48t111 36q56 53 51 117q-3 66 -45 84t-109 -72 q-65 -87 -77 -117z" />
<glyph unicode="&#x645;" horiz-adv-x="638" arabic-form="medial" d="M-69 72q-3 55 29 75q31 20 69 25q37 4 83 61q48 59 140 195q94 139 203 139h5q64 0 106 -63q44 -63 39 -183q-1 -62 -20 -122q4 -16 15 -22q27 -16 57 -19q27 -1 44 -39t-1 -73q-19 -37 -53.5 -43.5t-85.5 21.5q-25 15 -48 43q-63 -67 -177 -70q-124 11 -171 102 q-92 -110 -169 -98q-63 17 -65 71zM258 195q12 -33 69 -48t111 36q56 53 51 117q-3 66 -45 84t-109 -72q-65 -87 -77 -117z" />
<glyph unicode="&#x646;" horiz-adv-x="2498" arabic-form="final" d="M18 71q0 267 337 514q485 305 861 354q74 -14 74 -70v-22q0 -63 -152 -81q-56 0 -351 -114q-253 -122 -439 -269q-174 -171 -174 -308q0 -155 177 -294q253 -156 603 -156h39q595 0 1056 382q154 151 184 277q13 64 33 179l5 59q1 56 10 104l4 47v3q21 64 63 64h22 q65 -2 74 -99l-5 -42q4 -40 -4 -106q-26 -198 -16 -248q11 -53 78 -81q48 -4 68 -41q19 -34 8 -68t-43 -47q-33 -14 -98 9t-109 92q-4 -4 -5 -6q-160 -229 -386 -354q-424 -258 -900 -258q-456 0 -830 248q-184 151 -184 332zM1469 344q0 58 76 68q73 0 124 -96v-20 q0 -49 -88 -68h-20q-75 0 -92 116z" />
<glyph unicode="&#x646;" horiz-adv-x="591" arabic-form="initial" d="M-94 79q4 70 76 81q172 3 249 73q78 70 97 203q19 132 74 167q0 5 30 7q107 -21 69 -161q-39 -183 -102 -263q-63 -78 -172 -138q-110 -59 -242 -47q-42 4 -61.5 23.5t-17.5 54.5zM248 1111q0 58 76 68q73 0 124 -96v-20q0 -50 -88 -68h-20q-75 0 -92 116z" />
<glyph unicode="&#x646;" horiz-adv-x="400" arabic-form="medial" d="M-76 85q5 74 80 86q118 0 180 186q62 184 98 223q34 38 78 24q82 -42 24 -162q-39 -104 -49 -139q-9 -27 -7 -80q2 -50 71 -59q64 5 80 -73v-18q-16 -73 -83 -73q-165 -2 -182 122q-43 -67 -90 -94.5t-117 -30.5q-89 14 -83 88zM236 1057q0 58 76 68q73 0 124 -96v-20 q0 -49 -88 -68h-20q-75 0 -92 116z" />
<glyph unicode="&#x647;" horiz-adv-x="623" arabic-form="final" d="M-299 -71q0 140 268 384q212 175 382 175q178 0 233 -130q16 -41 23 -163q6 -33 30 -33q65 -27 65 -73v-15q0 -62 -73 -80h-57q-80 0 -106 60q-24 30 -37 226q-15 58 -58 58l-15 2h-13q-157 0 -379 -243q-76 -97 -90 -145h3l35 5h7q81 -12 81 -78l2 -3v-2q0 -95 -150 -95 q-120 0 -148 102l-3 26v22z" />
<glyph unicode="&#x647;" horiz-adv-x="1199" arabic-form="initial" d="M-79 78q-8 65 78 80q69 2 91 4q-10 14 -10 30q0 109 128 235q79 71 156 98q23 50 63 50q145 0 430 -34q244 -40 244 -194q0 -131 -171 -235q-69 -51 -295 -80q-96 -16 -208 -16q-109 3 -109 7q-149 -30 -317 -23q-72 13 -80 78zM231 178q0 -23 37 -23q115 0 260 140 q55 61 55 80q-23 22 -82 22q-151 0 -252 -164q-18 -35 -18 -55zM649 190q112 14 185 45q112 66 112 114q0 20 -151 44l-64 7v-3q7 -10 7 -25q0 -69 -89 -182z" />
<glyph unicode="&#x647;" horiz-adv-x="1083" arabic-form="medial" d="M-80 78q-8 65 78 80q69 2 91 4q-10 14 -10 30q0 109 128 235q79 71 156 98q23 50 63 50q145 0 430 -34q244 -40 244 -194q0 -93 -85 -172q36 -17 63 -16q48 -4 68 -41q19 -34 1 -71q-18 -35 -44 -44q-25 -7 -101 0q-73 7 -140 40q-22 11 -36 24q-78 -22 -192 -35 q-96 -16 -208 -16q-109 3 -109 7q-149 -30 -317 -23q-72 13 -80 78zM230 178q0 -23 37 -23q115 0 260 140q55 61 55 80q-23 22 -82 22q-151 0 -252 -164q-18 -35 -18 -55zM648 190q112 14 185 45q112 66 112 114q0 20 -151 44l-64 7v-3q7 -10 7 -25q0 -69 -89 -182z" />
<glyph unicode="&#x648;" horiz-adv-x="497" arabic-form="final" d="M-254 -452l1 4q4 56 76 100q77 64 165 150q125 119 187 219q-130 54 -116 173q-1 127 184 326q86 72 161 65q87 -7 114 -116q4 -35 1 -69q-9 -106 -67 -234q11 0 37 -2q48 -4 68 -41q19 -34 8 -68q-11 -33 -43 -48q-34 -14 -149 -8h-11q-24 -39 -70 -108 q-68 -97 -240 -254q-178 -162 -227 -175l-15 1q-37 3 -59 52q-7 12 -5 33zM228 207q0 -30 32 -36q26 19 71 139l19 80q-121 -119 -122 -183z" />
<glyph unicode="&#x649;" horiz-adv-x="1818" arabic-form="final" d="M20 -167q0 188 297 455q216 173 363 230q300 142 453 142h31q73 0 85 -54l2 -12q0 -82 -168 -237l-21 -5h-10q-67 0 -81 83q4 19 38 62q-246 -42 -412 -152q-94 -50 -283 -223q-152 -167 -152 -294q0 -106 150 -201q134 -69 301 -69h48q229 0 529 92q130 48 232 112 q169 115 169 159q0 27 -152 104q-48 31 -48 73v3q0 72 83 80h3l123 -16l33 -3l140 3h7l34 2q55 0 76 -69v-14q0 -66 -81 -78h-31l-52 -3q26 -49 26 -87q0 -96 -204 -225q-130 -95 -346 -174q-302 -99 -601 -99q-463 0 -567 296q-14 54 -14 98v21z" />
<glyph unicode="&#x64a;" horiz-adv-x="1493" arabic-form="final" d="M-280 -167q0 188 297 455q216 173 363 230q300 142 453 142h31q73 0 85 -54l2 -12q0 -82 -168 -237l-21 -5h-10q-67 0 -81 83q4 19 38 62q-246 -42 -412 -152q-94 -50 -283 -223q-152 -167 -152 -294q0 -106 150 -201q133 -69 301 -69h48q229 0 529 92q130 48 232 112 q169 115 169 159q0 27 -152 104q-48 31 -48 73v3q0 72 83 80h3l123 -16l33 -3l140 3h7l34 2q55 0 76 -69v-14q0 -66 -81 -78h-31l-52 -3q26 -49 26 -87q0 -96 -204 -225q-130 -95 -346 -174q-302 -99 -601 -99q-463 0 -567 296q-14 54 -14 98v21z" />
<glyph unicode="&#x64a;" horiz-adv-x="600" arabic-form="initial" d="M-134 -258q0 65 98 88l390 35q32 0 47 -28l-23 -68q-7 -34 -418 -79h-7q-87 0 -87 52zM-85 79q4 70 76 81q172 3 249 73q78 70 97 203q19 132 74 167q0 5 30 7q107 -21 69 -161q-39 -183 -102 -263q-63 -78 -172 -138q-110 -59 -242 -47q-42 4 -61.5 23.5t-17.5 54.5z " />
<glyph unicode="&#x64a;" horiz-adv-x="378" arabic-form="medial" d="M-85 85q5 74 80 86q119 0 180 186q62 184 98 223q35 38 78 24q83 -42 24 -162q-39 -104 -49 -139q-9 -27 -7 -80q2 -50 71 -59q64 5 80 -73v-18q-16 -73 -83 -73q-165 -2 -182 122q-43 -67 -90 -94.5t-117 -30.5q-89 14 -83 88zM-57 -501q0 65 71 88q99 24 369 48 q24 0 34 -28l-17 -68q-6 -35 -388 -92h-6q-63 0 -63 52z" />
<glyph horiz-adv-x="2048" />
<glyph horiz-adv-x="2048" />
<glyph unicode="&#xd;" horiz-adv-x="2048" />
<glyph unicode=" "  horiz-adv-x="413" />
<glyph unicode="&#x09;" horiz-adv-x="413" />
<glyph unicode="&#xa0;" horiz-adv-x="413" />
<glyph unicode="!" horiz-adv-x="600" d="M175 1235q7 100 76 112q34 7 60 -32t45 -123q38 -168 39 -376q3 -207 -9 -282q-5 -37 -22.5 -55.5t-45.5 -17.5q-57 2 -73 189q-17 197 -47 337q-31 145 -23 248zM221 130q0 140 102 184l27 3q38 0 48 -54q0 -23 -28 -38l-3 -20v-3h17q68 -21 68 -85q0 -80 -92 -113 l-24 -3q-102 0 -115 129z" />
<glyph unicode="%" horiz-adv-x="1507" d="M276 -24q0 38 84 174q118 226 391 791q71 145 232 371q19 16 40 16q47 0 64 -101v-5q0 -47 -87 -170q-151 -255 -400 -833q-109 -216 -212 -349l-24 -5h-12q-60 0 -76 106v5zM289 1054v13q0 13 22 47q-13 22 -13 43q14 90 85 90q103 0 159 -120v-43q0 -75 -112 -99h-26 q-115 0 -115 69zM844 -3q0 45 73 103q0 58 60 68h25q102 0 142 -124v-34q0 -93 -107 -137l-35 -4h-4q-100 0 -154 120v8z" />
<glyph unicode="(" horiz-adv-x="1595" d="M670 540q32 297 253 631q223 335 297 294q75 -40 52 -97q-21 -52 -220 -316q-196 -260 -205 -576v-45q1 -549 477 -776q58 -39 58 -97v-7q4 -83 -78 -87q-84 -5 -254 140q-169 144 -291 392q-120 248 -89 544z" />
<glyph unicode=")" horiz-adv-x="1730" d="M360 -473q-29 77 138 208q388 326 457 615q70 289 -30 490q-99 202 -291 313t-234 182t29 122l18 6q96 35 337 -188q240 -221 310 -416q184 -511 -296 -1120q-189 -196 -302 -265l-7 -3q-115 -22 -125 44z" />
<glyph unicode="*" horiz-adv-x="1008" d="M65 466v16q0 67 244 104v4l-48 36q-72 40 -72 80v8q17 60 60 60h12q42 0 172 -108v8l-28 144v4q10 52 72 52q57 0 76 -144q6 0 12 -60h4q108 120 152 120q60 -8 60 -52v-20q0 -26 -100 -108l-28 -32h76l136 4q38 0 56 -72q0 -76 -148 -76h-116l132 -112q28 -34 28 -68 q0 -42 -52 -48h-12q-67 0 -156 80v-4l4 -104v-4l4 -24q-17 -68 -60 -68h-20q-60 0 -60 124q-7 20 -12 132q-166 -152 -236 -152h-8q-40 7 -40 40v12q0 28 84 68q107 90 144 144h-36q-102 0 -232 -44q-64 15 -64 60z" />
<glyph unicode="+" horiz-adv-x="1104" d="M138 437v16q0 68 116 79q120 24 179 24v4q-28 143 -28 192q16 64 80 64q67 0 76 -112l24 -136l323 12q72 -20 72 -92q0 -63 -100 -63l-251 -8l-4 -12q60 -267 60 -319q0 -53 -76 -68h-16q-72 0 -72 119q-52 256 -60 268q-59 0 -259 -36q-52 0 -64 68z" />
<glyph unicode="," horiz-adv-x="700" d="M290 152v20q13 76 72 76h12q75 0 124 -124l4 -28q0 -140 -116 -236l-40 -8q-20 6 -20 28q0 9 68 92l12 36h-4q-80 0 -112 144z" />
<glyph unicode="-" horiz-adv-x="970" d="M93 434v14q0 59 97 66q242 34 442 34h14q197 0 197 -24q18 -24 18 -45v-14q0 -58 -97 -58q-428 -10 -623 -35q-48 19 -48 62z" />
<glyph unicode="." horiz-adv-x="713" d="M175 109q0 58 76 68q73 0 124 -96v-20q0 -49 -88 -68h-20q-75 0 -92 116z" />
<glyph unicode="/" horiz-adv-x="830" d="M108 -123l1 12q15 169 205 529q271 641 311 705q35 27 60 24q84 -27 76 -98l-2 -30q-378 -982 -485 -1139q-70 -91 -102 -88l-22 2q-40 3 -42 83z" />
<glyph unicode="0" horiz-adv-x="757" d="M152 367v28q0 83 88 144l116 32h40q140 0 204 -148l8 -56q0 -123 -140 -176q-26 -12 -64 -12h-36q-117 0 -192 108q-24 39 -24 80zM308 399q0 -46 64 -56h16q20 0 48 16q0 43 -108 48l-16 12z" />
<glyph unicode="&#x660;" horiz-adv-x="757" d="M152 367v28q0 83 88 144l116 32h40q140 0 204 -148l8 -56q0 -123 -140 -176q-26 -12 -64 -12h-36q-117 0 -192 108q-24 39 -24 80zM308 399q0 -46 64 -56h16q20 0 48 16q0 43 -108 48l-16 12z" />
<glyph unicode="1" horiz-adv-x="478" d="M77 1016v11q0 61 71 76q65 0 120.5 -202t131.5 -668l4 -55v-27q0 -151 -71 -151h-8q-85 0 -94 141q-7 134 -154 875z" />
<glyph unicode="&#x661;" horiz-adv-x="478" d="M77 1016v11q0 61 71 76q65 0 120.5 -202t131.5 -668l4 -55v-27q0 -151 -71 -151h-8q-85 0 -94 141q-7 134 -154 875z" />
<glyph unicode="2" horiz-adv-x="929" d="M97 1020v10q15 80 75 80h35q27 0 93 -116t211 -123q145 7 270 230l25 5h25q43 0 55 -65q-71 -220 -220 -305q-84 -35 -140 -35l-51 5h-20q197 -408 226 -631q-19 -75 -75 -75h-25q-83 0 -96 135q-93 348 -200 546l-183 314z" />
<glyph unicode="&#x662;" horiz-adv-x="929" d="M97 1020v10q15 80 75 80h35q27 0 93 -116t211 -123q145 7 270 230l25 5h25q43 0 55 -65q-71 -220 -220 -305q-84 -35 -140 -35l-51 5h-20q197 -408 226 -631q-19 -75 -75 -75h-25q-83 0 -96 135q-93 348 -200 546l-183 314z" />
<glyph unicode="3" horiz-adv-x="1055" d="M71 1037v8q0 62 79 75q32 0 106 -105q73 -105 166 -114q92 17 87 105q-2 44 11.5 64.5t42.5 17.5h15q40 0 71 -108q31 -106 91 -120t83 48q23 64 19 121q-4 60 46 71t65 -55q16 -64 -14 -188q-30 -122 -151 -132q-120 -11 -191 110h-4q-68 -141 -201 -92 q85 -202 154 -539l23 -136q0 -56 -72 -68h-11q-66 0 -76 94q-99 458 -171 608q-69 146 -164 312z" />
<glyph unicode="&#x663;" horiz-adv-x="1055" d="M71 1037v8q0 62 79 75q32 0 106 -105q73 -105 166 -114q92 17 87 105q-2 44 11.5 64.5t42.5 17.5h15q40 0 71 -108q31 -106 91 -120t83 48q23 64 19 121q-4 60 46 71t65 -55q16 -64 -14 -188q-30 -122 -151 -132q-120 -11 -191 110h-4q-68 -141 -201 -92 q85 -202 154 -539l23 -136q0 -56 -72 -68h-11q-66 0 -76 94q-99 458 -171 608q-69 146 -164 312z" />
<glyph unicode="4" horiz-adv-x="1142" d="M68 949q8 58 66 59q58 3 127 -99q71 -102 269 -124q-26 49 -26 98v4q0 174 281 311l17 4h17q55 -13 55 -55v-17q0 -42 -106 -81q-106 -76 -106 -166q13 -85 85 -85l21 -4l208 17q77 -21 77 -81v-5q0 -67 -145 -89q-96 -17 -178 -17h-43q-109 0 -255 30q168 -287 187 -585 v-17q0 -45 -72 -59q-81 9 -81 76q-18 225 -149 487q-121 198 -189 269q-68 74 -60 129z" />
<glyph unicode="5" horiz-adv-x="1096" d="M72 197q0 223 282 423h5v5q-155 5 -155 70l-5 28q7 85 75 85h19q325 0 615 -277q94 -127 94 -226v-47q0 -190 -207 -239h-65q-136 0 -263 127q-122 -146 -235 -146q-133 0 -155 178zM222 178q6 -37 33 -37q81 0 179 131q0 38 56 47q32 -2 141 -122q55 -37 108 -37h9 q108 10 108 80l5 18q0 116 -225 268q-62 38 -80 38q-115 -49 -225 -158q-109 -108 -109 -228z" />
<glyph unicode="6" horiz-adv-x="1105" d="M90 785.5q2 42.5 19 94.5q26 76 79 143t121 106q21 12 46.5 23.5t56 24t47.5 19.5q31 11 58 7.5t42 -21.5t19.5 -40t-8 -47t-41.5 -42q-10 -4 -54.5 -24t-57.5 -26.5t-46 -27t-47.5 -37t-33 -44t-28.5 -60.5q-23 -77 -15 -106q6 -21 24 -29q27 -11 58.5 -13t73.5 6 t60 12.5t63 17.5q99 29 184 67q61 79 118 114q7 4 28.5 11t39.5 12t19 5q24 1 38.5 -3t34.5 -19q28 -28 28.5 -59.5t-18.5 -57t-54 -52.5t-65 -44t-65 -34q-28 -36 -52 -73q-12 -17 -62 -90.5t-63 -93.5t-48.5 -79.5t-50 -95t-34 -90.5t-32.5 -112q-20 -51 -62.5 -61 t-72 21.5t-18.5 85.5q9 42 19.5 78t28 77t26.5 62t37 69t34.5 60t45 72.5l45.5 71.5q-122 -33 -233 -37q-99 -4 -156 53l-55 55q-11 14 -15 50q-8 58 -6 100.5z" />
<glyph unicode="7" horiz-adv-x="1009" d="M94 924l5 16q13 44 84 39l10 -2q135 -95 314 -590q184 494 244 549t118 30q59 -24 41 -84l-3 -11q-29 -94 -132 -271q-102 -177 -166 -381l-10 -31l-38 -160q-17 -56 -108 -43q-42 13 -89 249q-86 305 -186 473q-100 169 -84 217z" />
<glyph unicode="&#x667;" horiz-adv-x="1009" d="M94 924l5 16q13 44 84 39l10 -2q135 -95 314 -590q184 494 244 549t118 30q59 -24 41 -84l-3 -11q-29 -94 -132 -271q-102 -177 -166 -381l-10 -31l-38 -160q-17 -56 -108 -43q-42 13 -89 249q-86 305 -186 473q-100 169 -84 217z" />
<glyph unicode="8" horiz-adv-x="1163" d="M152 144q36 121 145 372q111 252 181 469q30 49 85 45t207 -330q154 -330 251 -609l-4 -48q-35 -71 -111 -46q-53 15 -72 82q-17 59 -197 521l-88 188q-89 -251 -208 -583q-83 -230 -164 -200q-58 22 -25 139z" />
<glyph unicode="&#x668;" horiz-adv-x="1163" d="M152 144q36 121 145 372q111 252 181 469q30 49 85 45t207 -330q154 -330 251 -609l-4 -48q-35 -71 -111 -46q-53 15 -72 82q-17 59 -197 521l-88 188q-89 -251 -208 -583q-83 -230 -164 -200q-58 22 -25 139z" />
<glyph unicode="9" horiz-adv-x="984" d="M71 794q0 173 184 294q56 19 105 23q236 0 368 -340q82 0 82 -69v-18q0 -21 -32 -55q29 -254 174 -491l10 -60q0 -58 -83 -78q-99 0 -197 294l-74 294q-89 -19 -170 -19h-69q-212 0 -289 161zM236 817q0 -73 170 -73h23l129 9v5q-86 197 -184 197q-100 0 -138 -129v-9z " />
<glyph unicode="&#x669;" horiz-adv-x="984" d="M71 794q0 173 184 294q56 19 105 23q236 0 368 -340q82 0 82 -69v-18q0 -21 -32 -55q29 -254 174 -491l10 -60q0 -58 -83 -78q-99 0 -197 294l-74 294q-89 -19 -170 -19h-69q-212 0 -289 161zM236 817q0 -73 170 -73h23l129 9v5q-86 197 -184 197q-100 0 -138 -129v-9z " />
<glyph unicode=":" horiz-adv-x="448" d="M114 627q0 58 76 68q73 0 124 -96v-20q0 -49 -88 -68h-20q-75 0 -92 116zM119 222q0 58 76 68q73 0 124 -96v-20q0 -49 -88 -68h-20q-75 0 -92 116z" />
<glyph unicode="=" horiz-adv-x="991" d="M110 542l2 15q8 52 222 53q222 3 465 -10l4 4l4 -1q56 -7 70 -79l-3 -23q-8 -56 -128 -40q-287 22 -570 2q-73 28 -66 79zM118 293l1 18q5 69 111 62q384 10 505 3l8 -1q109 -7 132 -86l-1 -3q-3 -48 -111 -58l-69 1l-110 8l-420 6q-47 16 -46 50z" />
<glyph unicode="[" horiz-adv-x="1317" d="M369 1325v16q0 64 120 64q237 28 456 28q372 -11 372 -52l4 -32q-7 -36 -60 -36q-67 -24 -720 -36v-4q56 -145 56 -272l-8 -504l4 -236v-120q0 -169 120 -228q91 -36 204 -36l272 4q200 0 200 -48l4 -20q0 -56 -92 -56q-214 -44 -368 -44h-28q-360 0 -452 260 q-12 65 -12 136v352l24 480v12q0 213 -92 352z" />
<glyph unicode="]" horiz-adv-x="1396" d="M-51 -205q0 52 136 52l72 4l224 -4h24q247 0 316 104q28 49 28 152v340l-4 548q15 162 52 252l-624 24q-152 14 -152 52v16q0 43 108 52q175 16 280 16q234 0 532 -40q32 -24 32 -56v-20l-52 -108q-44 -103 -44 -248v-44l36 -744q0 -307 -192 -404q-115 -60 -292 -60 q-174 0 -456 60q-24 23 -24 56z" />
<glyph unicode="{" horiz-adv-x="1043" d="M492 758q0 42 60 56q66 -20 88 -20h8q34 0 44 48v24q0 51 -60 260q-12 72 -12 128q17 224 132 224h24q72 0 140 -60v-24q0 -34 -48 -44l-60 8h-4q-60 0 -60 -96q0 -62 80 -384l12 -80q0 -73 -116 -132h-16q100 -139 100 -264v-36q0 -38 -84 -240l-4 -32v-20 q0 -170 204 -267q48 -33 48 -60v-8q-8 -60 -60 -60q-162 42 -240 144q-92 122 -92 227q0 78 72 256q16 57 16 104q0 150 -156 304q-16 16 -16 44z" />
<glyph unicode="}" horiz-adv-x="981" d="M32 -254q0 36 128 108q124 79 124 216v36q0 18 -80 216l-8 56v16q0 132 100 272q-75 0 -128 116v40q0 29 84 380l4 60v4q0 92 -64 92h-4l-56 -8q-48 10 -48 48v4q0 50 140 76h16q98 0 128 -132q12 -43 12 -100q0 -108 -68 -332l-4 -52v-12q0 -56 52 -56h4q24 0 84 20 q60 -14 60 -56v-12q0 -21 -76 -100q-96 -119 -96 -236q0 -84 76 -264l12 -100q0 -150 -160 -292q-121 -76 -180 -76q-52 10 -52 68z" />
<glyph unicode="&#xab;" horiz-adv-x="1666" d="M389 547v28q0 31 88 88q189 161 368 380q20 16 44 16h12q80 -15 80 -68v-8q0 -66 -380 -416q78 -71 241 -190q170 -124 154 -188q-16 -63 -65 -63h-12q-31 0 -128 88q-376 282 -390 301zM714 547v28q0 31 88 88q189 161 368 380q20 16 44 16h12q80 -15 80 -68v-8 q0 -66 -380 -416q78 -71 241 -190q170 -124 154 -188q-17 -63 -65 -63h-12q-31 0 -128 88q-376 282 -390 301z" />
<glyph unicode="&#xad;" horiz-adv-x="970" d="M93 434v14q0 59 97 66q242 34 442 34h14q197 0 197 -24q18 -24 18 -45v-14q0 -58 -97 -58q-428 -10 -623 -35q-48 19 -48 62z" />
<glyph unicode="&#xbb;" horiz-adv-x="1684" d="M408 993q16 64 65 64h12q31 0 129 -87q378 -281 391 -299l12 -32l1 -28q0 -31 -88 -89q-188 -162 -366 -381q-22 -17 -44 -17h-12q-79 15 -81 68v8q0 67 378 418q-69 63 -242 188q-171 125 -155 187zM733 995q16 64 65 64h12q32 0 129 -87q378 -281 391 -299l12 -32v-28 q0 -31 -87 -89q-189 -162 -367 -382q-19 -16 -43 -16h-12q-81 15 -81 68v8q0 67 378 418q-69 63 -242 188q-171 125 -155 187z" />
<glyph unicode="&#x60c;" horiz-adv-x="787" d="M242 113q8 101 53 170q46 70 77 72q29 1 43 -17q14 -17 -16 -60q-30 -47 -43 -98q30 14 76 -23t20 -108q-25 -70 -121 -52q-95 18 -89 116z" />
<glyph unicode="&#x61b;" horiz-adv-x="900" d="M320 458q8 101 53 170q46 70 77 72q29 1 43 -17q14 -17 -16 -60q-30 -47 -43 -98q30 14 76 -23t20 -108q-25 -70 -121 -52q-95 18 -89 116zM331 123q0 58 76 68q73 0 124 -96v-20q0 -49 -88 -68h-20q-75 0 -92 116z" />
<glyph unicode="&#x61f;" horiz-adv-x="1074" d="M222 897q45 170 226 228q183 59 294 -2q113 -61 115 -171t-40 -136q-40 -25 -83 0q-42 25 -22 114t-55 116q-73 27 -195 -41q-120 -67 -129 -171q-7 -104 147 -147q155 -44 204 -127q50 -83 32 -161q-19 -80 -52 -139q-33 -62 -71 -60t-63 34q-24 34 27 145 q51 112 -55 152q-103 40 -215 118q-109 77 -65 248zM484 44q-2 74 62 87l3 1q45 10 95 -49l10 5q51 11 73 -49l2 -10q12 -53 -55 -90t-128 -3q-61 35 -62 108z" />
<glyph unicode="&#x621;" horiz-adv-x="657" d="M121 -69q0 65 79 125l138 115q50 56 44 116q-4 61 -111 178q-41 53 -43.5 105t30.5 87q30 36 87 68q55 32 96.5 20.5t54.5 -63.5q14 -53 -32 -93q-44 -39 -37 -73q7 -32 67 -123q60 -88 51.5 -167t-82.5 -134q-215 -215 -258 -215l-13 -2h-21q-42 0 -50 56z" />
<glyph unicode="&#x622;" horiz-adv-x="591" d="M109 82v57q0 277 173 621q42 119 111 119q46 0 60 -53v-30q0 -38 -60 -157q-111 -249 -111 -528l2 -23q0 -59 -64 -84l-26 -4q-59 0 -83 66zM163 999q-79 361 365 468q446 107 516 74q72 -33 57 -93q-35 -41 -247 -65q-211 -22 -387 -92q-174 -68 -167 -171 q5 -65 13 -148q5 -45 -58 -76l-27 1q-59 14 -65 102z" />
<glyph unicode="&#x623;" horiz-adv-x="596" d="M139 22q65 497 65 622q18 256 18 393q0 58 71 78h9q59 0 78 -64l1 -14q0 -72 -59 -689l-26 -340q-27 -60 -76 -60h-1q-80 9 -80 74zM174 1276q0 39 46 73l80 67q23 32 23 60q0 43 -62 111q-24 31 -24 59q0 49 34 67q15 7 29 7q24 0 52 -27q37 -34 37 -39l1 -4 q0 -18 -28 -22h-5q-7 -4 -7 -13v-5q0 -23 47 -94q19 -31 19 -67q0 -48 -43 -79q-125 -125 -150 -125l-8 -1h-12q-24 0 -29 32z" />
<glyph unicode="&#x624;" horiz-adv-x="474" d="M-252 -452l1 4q4 56 76 100q77 64 165 150q127 121 177 199q-131 56 -120 181q14 140 198 338q86 72 161 65q87 -7 114 -116q4 -35 1 -69q-18 -207 -227 -509q-68 -97 -240 -254q-178 -162 -227 -175l-15 1q-37 3 -59 52q-7 12 -5 33zM87 854q0 39 46 73l80 67 q23 32 23 60q0 43 -62 111q-24 32 -24 59q0 49 34 67q15 7 29 7q23 0 52 -27q37 -34 37 -39l1 -4q0 -18 -28 -22h-5q-7 -4 -7 -13v-5q0 -23 47 -94q19 -31 19 -67q0 -48 -43 -79q-125 -125 -150 -125l-8 -1h-12q-24 0 -29 32zM211 165l38 -21q26 18 84 166l19 80 q-90 -87 -133 -196z" />
<glyph unicode="&#x625;" horiz-adv-x="596" d="M45 -590q0 39 46 73l80 67q23 32 23 60q0 43 -62 111q-24 31 -24 59q0 49 34 67q15 7 29 7q23 0 52 -27q37 -34 37 -39l1 -4q0 -18 -28 -22h-5q-7 -4 -7 -13v-5q0 -23 47 -94q19 -31 19 -67q0 -48 -43 -79q-125 -125 -150 -125l-8 -1h-12q-24 0 -29 32zM139 22 q65 497 65 622q18 256 18 393q0 58 71 78h9q59 0 78 -64l1 -14q0 -72 -59 -689l-26 -340q-27 -60 -76 -60h-1q-80 9 -80 74z" />
<glyph unicode="&#x626;" horiz-adv-x="3201" d="M48 398v19q0 193 212 396q103 88 191 135q535 305 1142 305q301 0 370 -98q16 -25 16 -52v-10q0 -69 -94 -127l-23 -3h-8q-54 0 -73 64v19q0 8 15 29v3q-100 18 -214 18q-517 0 -998 -253q-120 -61 -246 -167q-158 -153 -158 -271v-12q0 -152 217 -287q91 -60 348 -126 q334 -80 707 -80q372 0 753 74q202 53 325 114q206 110 206 207q0 90 -251 260q-77 52 -133 114q-45 53 -45 105v3q0 121 281 180q304 84 449 84h36q79 0 96 -59l2 -19v-2q0 -61 -64 -77l-11 -2l-51 4q-184 0 -490 -100q-54 -29 -54 -41q6 -13 86 -66q306 -185 306 -365v-18 q0 -218 -338 -356q-97 -42 -312 -89q-351 -66 -697 -66h-46q-602 0 -1094 195q-358 160 -358 418zM2252 1358q0 39 46 73l80 67q23 32 23 60q0 43 -62 111q-24 32 -24 59q0 49 34 67q15 7 29 7q24 0 52 -27q37 -34 37 -39l1 -4q0 -18 -28 -22h-5q-7 -4 -7 -13v-5 q0 -23 47 -94q19 -31 19 -67q0 -48 -43 -79q-125 -125 -150 -125l-8 -1h-12q-24 0 -29 32z" />
<glyph unicode="&#x627;" horiz-adv-x="490" d="M143 22q65 497 65 622q18 256 18 393q0 58 71 78h9q59 0 78 -64l1 -14q0 -72 -59 -689l-26 -340q-27 -60 -76 -60h-1q-80 9 -80 74z" />
<glyph unicode="&#x628;" horiz-adv-x="1619" d="M31 299q0 183 268 349q109 57 235 91q192 45 326 45q51 0 75 -68v-28q0 -58 -78 -75h-53q-312 0 -523 -175q-93 -92 -93 -149q0 -133 366 -162l124 -2h2q472 0 773 313q86 103 86 374q0 65 53 89q15 7 36 7q83 -12 83 -81q0 -361 -169 -518q-164 -157 -379 -235 q-238 -83 -495 -83q-502 0 -614 210q-23 61 -23 98zM646 -494q0 59 76 68q73 0 124 -96v-20q0 -49 -88 -68h-20q-75 0 -92 116z" />
<glyph unicode="&#x62a;" horiz-adv-x="1628" d="M31 299q0 183 268 349q109 57 235 91q192 45 326 45q51 0 75 -68v-28q0 -58 -78 -75h-53q-312 0 -523 -175q-93 -92 -93 -149q0 -133 366 -162l124 -2h2q472 0 773 313q86 103 86 374q0 65 53 89q15 7 36 7q83 -12 83 -81q0 -361 -169 -518q-164 -157 -379 -235 q-238 -83 -495 -83q-502 0 -614 210q-23 61 -23 98zM828 1138q0 66 108 88q152 24 560 48q36 0 52 -28l-26 -68q-9 -35 -590 -92h-8q-96 0 -96 52z" />
<glyph unicode="&#x62b;" horiz-adv-x="1624" d="M31 299q0 183 268 349q109 57 235 91q192 45 326 45q51 0 75 -68v-28q0 -58 -78 -75h-53q-312 0 -523 -175q-93 -92 -93 -149q0 -133 366 -162l124 -2h2q472 0 773 313q86 103 86 374q0 65 53 89q15 7 36 7q83 -12 83 -81q0 -361 -169 -518q-164 -157 -379 -235 q-238 -83 -495 -83q-502 0 -614 210q-23 61 -23 98zM810 1104q0 66 108 88q152 24 560 48q36 0 52 -28l-26 -68q-9 -35 -590 -92h-8q-96 0 -96 52zM1089 1490q0 58 76 68q73 0 124 -96v-20q0 -49 -88 -68h-20q-75 0 -92 116z" />
<glyph unicode="&#x62c;" horiz-adv-x="1397" d="M-204 -431q0 378 534 767q188 146 334 231q24 9 24 28q-24 58 -156 116l-34 5h-7q-85 -15 -219 -197q-94 -185 -120 -205h-10q-10 0 -12 51v31q0 148 41 192q33 74 197 226q65 53 116 53q102 0 337 -180q31 -12 60 -12q31 0 110 36q32 7 65 7q148 0 258 -103 q14 -19 14 -29v-5q0 -67 -84 -99l-31 -4q-92 0 -296 45h-12q-87 0 -443 -245q-112 -73 -298 -253q-238 -254 -238 -444v-29q0 -266 216 -385q146 -96 402 -93h5q235 9 536 83q22 12 22 20l-9 16v20q8 33 29 33q95 -45 134 -115l2 -12q-1 -67 -241 -108q-283 -46 -447 -46 h-19q-281 0 -505 109q-33 12 -144 120q-78 98 -94 187q-17 70 -17 152v36zM642 -366q0 59 76 68q73 0 124 -96v-20q0 -49 -88 -68h-20q-75 0 -92 116z" />
<glyph unicode="&#x62d;" horiz-adv-x="1400" d="M-204 -431q0 378 534 767q188 146 334 231q24 9 24 28q-24 58 -156 116l-34 5h-7q-85 -15 -219 -197q-94 -185 -120 -205h-10q-10 0 -12 51v31q0 148 41 192q33 74 197 226q65 53 116 53q102 0 337 -180q31 -12 60 -12q31 0 110 36q32 7 65 7q148 0 258 -103 q14 -19 14 -29v-5q0 -67 -84 -99l-31 -4q-92 0 -296 45h-12q-87 0 -443 -245q-112 -73 -298 -253q-238 -254 -238 -444v-29q0 -266 216 -385q146 -96 402 -93h5q235 9 536 83q22 12 22 20l-9 16v20q8 33 29 33q95 -45 134 -115l2 -12q-1 -67 -241 -108q-283 -46 -447 -46 h-19q-281 0 -505 109q-33 12 -144 120q-78 98 -94 187q-17 70 -17 152v36z" />
<glyph unicode="&#x62e;" horiz-adv-x="1400" d="M-204 -431q0 378 534 767q188 146 334 231q24 9 24 28q-24 58 -156 116l-34 5h-7q-85 -15 -219 -197q-94 -185 -120 -205h-10q-10 0 -12 51v31q0 148 41 192q33 74 197 226q65 53 116 53q102 0 337 -180q31 -12 60 -12q31 0 110 36q32 7 65 7q148 0 258 -103 q14 -19 14 -29v-5q0 -67 -84 -99l-31 -4q-92 0 -296 45h-12q-87 0 -443 -245q-112 -73 -298 -253q-238 -254 -238 -444v-29q0 -266 216 -385q146 -96 402 -93h5q235 9 536 83q22 12 22 20l-9 16v20q8 33 29 33q95 -45 134 -115l2 -12q-1 -67 -241 -108q-283 -46 -447 -46 h-19q-281 0 -505 109q-33 12 -144 120q-78 98 -94 187q-17 70 -17 152v36zM403 1510q0 58 76 68q73 0 124 -96v-20q0 -49 -88 -68h-20q-75 0 -92 116z" />
<glyph unicode="&#x62f;" horiz-adv-x="701" d="M-212 -181q0 59 99 73q155 50 267 109q120 62 244 175q46 52 46 117v2q0 114 -149 359l-4 27q12 76 75 76h5q60 0 100 -103q103 -181 103 -347q0 -169 -126 -272q-113 -100 -281 -186q-255 -119 -303 -119q-76 13 -76 69v20z" />
<glyph unicode="&#x630;" horiz-adv-x="696" d="M-213 -238q0 60 99 73q158 51 267 110q120 62 244 175q46 52 46 117v2q0 114 -149 359l-4 27q12 76 75 76h5q60 0 100 -103q103 -181 103 -347q0 -169 -126 -272q-112 -100 -281 -187q-255 -119 -303 -119q-76 13 -76 69v20zM266 1257q0 58 76 68q73 0 124 -96v-20 q0 -49 -88 -68h-20q-75 0 -92 116z" />
<glyph unicode="&#x631;" horiz-adv-x="553" d="M-388 -578q0 35 44 73q0 3 169 168q172 172 224 239q134 158 222 290q113 171 219 356q25 31 64 31q44 0 69 -45q7 -13 7 -31v-3q0 -26 -30 -69q-65 -109 -119 -188q-39 -69 -131 -178q-158 -208 -396 -475q-81 -89 -185 -199q-37 -43 -51 -43q-12 -6 -31 -6 q-46 0 -70 50q-5 15 -5 24v6z" />
<glyph unicode="&#x632;" horiz-adv-x="540" d="M-388 -578q0 35 44 73q0 3 169 168q172 172 224 239q134 158 222 290q113 171 219 356q25 31 64 31q44 0 69 -45q7 -13 7 -31v-3q0 -26 -30 -69q-65 -109 -119 -188q-39 -69 -131 -178q-158 -208 -396 -475q-81 -89 -185 -199q-37 -43 -51 -43q-12 -6 -31 -6 q-46 0 -70 50q-5 15 -5 24v6zM518 1331q0 58 76 68q73 0 124 -96v-20q0 -49 -88 -68h-20q-75 0 -92 116z" />
<glyph unicode="&#x633;" horiz-adv-x="3104" d="M26 568q0 250 189 477q120 127 169 151q141 101 356 169q140 42 350 73q143 16 189 16q101 -17 101 -94v-12q0 -56 -68 -106l-33 -8q-46 0 -70 43q-202 -18 -366 -61q-170 -49 -280 -108q-95 -52 -186 -141q-180 -189 -180 -394v-5q0 -237 177 -411q268 -216 673 -216 q458 0 860 279q131 98 172 227l2 18q-20 103 -20 134v20q0 79 45 101q28 12 43 12q99 0 99 -196v-13l-3 -30l111 -8q248 0 560 83q88 -13 88 -85q0 -84 -146 -104q-266 -63 -492 -63q-98 0 -169 18q-148 -286 -608 -471q-229 -78 -441 -78h-68q-399 0 -749 244 q-111 86 -181 184q-124 178 -124 355z" />
<glyph unicode="&#x634;" horiz-adv-x="3104" d="M26 568q0 250 189 477q120 127 169 151q141 101 356 169q140 42 350 73q143 16 189 16q101 -17 101 -94v-12q0 -56 -68 -106l-33 -8q-46 0 -70 43q-202 -18 -366 -61q-170 -49 -280 -108q-95 -52 -186 -141q-180 -189 -180 -394v-5q0 -237 177 -411q268 -216 673 -216 q458 0 860 279q131 98 172 227l2 18q-20 103 -20 134v20q0 79 45 101q28 12 43 12q99 0 99 -196v-13l-3 -30l111 -8q248 0 560 83q88 -13 88 -85q0 -84 -146 -104q-266 -63 -492 -63q-98 0 -169 18q-148 -286 -608 -471q-229 -78 -441 -78h-68q-399 0 -749 244 q-111 86 -181 184q-124 178 -124 355zM2229 1176q0 66 108 88q152 24 560 48q36 0 52 -28l-26 -68q-9 -35 -590 -92h-8q-96 0 -96 52zM2508 1684q0 58 76 68q73 0 124 -96v-20q0 -49 -88 -68h-20q-75 0 -92 116z" />
<glyph unicode="&#x635;" horiz-adv-x="2916" d="M-3 267q0 397 708 664q256 82 520 82h58q72 0 86 -65v-17q-17 -69 -62 -69h-92q-503 0 -924 -328q-143 -131 -143 -277q0 -233 318 -390q161 -58 352 -58h75q366 0 770 260q189 129 270 349l14 44q-21 57 -21 127q8 167 52 167q0 11 48 17q92 -17 92 -119l3 -35l-13 -136 q17 -35 48 -35q32 70 232 267q238 202 421 202q137 0 175 -137l3 -34v-24q0 -171 -311 -359q-178 -93 -377 -93h-3q-48 0 -92 18q-87 -146 -93 -148h-3q-48 17 -48 86v7q0 35 24 85l-28 14q-105 -289 -431 -472q-323 -177 -691 -177q-650 0 -875 351q-62 107 -62 233z M2282 414h17q258 0 445 181q96 91 96 137q0 35 -27 35h-11q-147 0 -479 -298l-41 -51v-4z" />
<glyph unicode="&#x636;" horiz-adv-x="2902" d="M0 267q0 397 708 664q256 82 520 82h58q72 0 86 -65v-17q-16 -69 -62 -69h-92q-503 0 -924 -328q-143 -131 -143 -277q0 -233 318 -390q161 -58 352 -58h75q366 0 770 260q189 129 270 349l14 44q-21 57 -21 127q8 167 52 167q0 11 48 17q92 -17 92 -119l3 -35l-13 -136 q17 -35 48 -35q32 70 232 267q238 202 421 202q137 0 175 -137l3 -34v-24q0 -171 -311 -359q-179 -93 -377 -93h-3q-49 0 -92 18q-87 -146 -93 -148h-3q-48 17 -48 86v7q0 35 24 85l-28 14q-105 -289 -431 -472q-323 -177 -691 -177q-650 0 -875 351q-62 107 -62 233z M2285 414h17q258 0 445 181q96 91 96 137q0 35 -27 35h-11q-147 0 -479 -298l-41 -51v-4zM2319 1318q0 58 76 68q73 0 124 -96v-20q0 -49 -88 -68h-20q-75 0 -92 116z" />
<glyph unicode="&#x637;" horiz-adv-x="1053" d="M71 76q12 81 77 81l99 3v22q0 37 164 228q142 151 202 197l-7 31q0 170 73 636q50 277 78 373q30 36 69 36q56 0 79 -62v-24q-99 -461 -128 -814l-5 -57h2q94 57 162 57q101 0 140 -112l5 -40q18 -348 -214 -496q-231 -149 -594 -135q-163 -1 -163 10q-39 28 -39 66z M432 182h3q156 -28 317 71t179 242q9 72 -5 100.5t-52 14.5q-73 -28 -246 -193q-159 -174 -196 -235z" />
<glyph unicode="&#x638;" horiz-adv-x="1080" d="M93 76q12 81 77 81l99 3v22q0 37 164 228q142 151 202 197l-7 31q0 170 73 636q50 277 78 373q30 36 69 36q56 0 79 -62v-24q-99 -461 -128 -814l-5 -57h2q94 57 162 57q101 0 140 -112l5 -40q18 -348 -214 -496q-231 -149 -594 -135q-163 -1 -163 10q-39 28 -39 66z M454 182h3q156 -28 317 71t179 242q9 72 -5 100.5t-52 14.5q-73 -28 -246 -193q-159 -174 -196 -235zM960 1431q0 58 76 68q73 0 124 -96v-20q0 -49 -88 -68h-20q-75 0 -92 116z" />
<glyph unicode="&#x639;" horiz-adv-x="1201" d="M-252 -457q0 333 440 654q142 93 246 140l134 53q-13 25 -13 47q0 151 270 340q105 65 166 72h12q62 -15 62 -61v-20q0 -49 -89 -72q-71 -28 -191 -136q-85 -85 -85 -121v-2l6 -2q255 85 338 85q59 0 70 -77q0 -89 -257 -146q-41 -9 -87 -9h-43l-2 2q-309 -86 -567 -290 q-138 -126 -178 -185q-104 -151 -104 -253v-27q0 -110 102 -221q101 -112 336 -170q238 -59 471 -22q240 36 341 79q104 43 172 43q67 0 67 -81q0 -66 -112 -91q-122 -28 -351 -68q-238 -43 -598 0q-359 42 -515 348q-41 97 -41 191z" />
<glyph unicode="&#x63a;" horiz-adv-x="1201" d="M-252 -457q0 333 440 654q142 93 246 140l134 53q-13 25 -13 47q0 151 270 340q105 65 166 72h12q62 -15 62 -61v-20q0 -49 -89 -72q-71 -28 -191 -136q-85 -85 -85 -121v-2l6 -2q255 85 338 85q59 0 70 -77q0 -89 -257 -146q-41 -9 -87 -9h-43l-2 2q-309 -86 -567 -290 q-138 -126 -178 -185q-104 -151 -104 -253v-27q0 -110 102 -221q101 -112 336 -170q238 -59 471 -22q240 36 341 79q104 43 172 43q67 0 67 -81q0 -66 -112 -91q-122 -28 -351 -68q-238 -43 -598 0q-359 42 -515 348q-41 97 -41 191zM707 1391q0 58 76 68q73 0 124 -96v-20 q0 -49 -88 -68h-20q-75 0 -92 116z" />
<glyph unicode="&#x640;" horiz-adv-x="590" d="M-30 0v182h652v-182h-652z" />
<glyph unicode="&#x641;" horiz-adv-x="2470" d="M71 439q0 291 411 525q129 74 374 161q132 45 151 45h5q85 -12 85 -82v-15q0 -67 -117 -89q-415 -138 -572 -265q-171 -117 -171 -270v-25q0 -286 461 -414q117 -31 262 -31q418 0 934 254q-15 64 -15 104q0 223 181 365q74 52 134 52h7q122 0 159 -139l5 -52v-5 q0 -137 -122 -292q-119 -115 -210 -154q-135 -78 -275 -131q-392 -138 -733 -138q-425 0 -743 222q-211 163 -211 374zM1675 1400q0 58 76 68q73 0 124 -96v-20q0 -49 -88 -68h-20q-75 0 -92 116zM2050 365q0 -30 8 -30q99 83 119 163q14 26 14 60v5l-2 12 q-85 -40 -131 -158q-8 -27 -8 -52z" />
<glyph unicode="&#x642;" horiz-adv-x="2696" d="M62 291v28q0 113 61 263q38 90 149 210q148 136 246 184q172 105 429 195q345 123 761 123q361 -7 361 -22q45 -26 45 -77q0 -53 -62 -76l-14 -2q-221 13 -337 13q-485 0 -902 -193q-168 -73 -324 -181q-185 -135 -240 -307q-19 -75 -19 -148q0 -201 248 -387 q268 -178 616 -178h22q381 0 804 197q105 53 206 129q96 82 141 144l47 67v2h-2q-140 0 -195 132q-15 41 -15 85v13q0 173 154 264q56 25 103 25h9q127 0 188 -136q18 -51 18 -112q0 -136 -102 -331q-45 -88 -167 -214q-113 -104 -212 -159q-99 -62 -293 -131 q-309 -100 -623 -100q-498 0 -857 266q-244 204 -244 414zM1980 1671q0 65 108 88q152 24 560 48q36 0 52 -28l-26 -68q-9 -35 -590 -92h-8q-96 0 -96 52zM2252 492q0 -40 29 -54q33 -16 60 -16h4q47 0 59 122l2 15q-9 71 -61 71q-55 0 -86 -78q-7 -22 -7 -50v-10z" />
<glyph unicode="&#x644;" horiz-adv-x="2198" d="M31 -4q0 175 193 367q188 166 357 215q213 66 348 66q145 0 169 -96l3 -28q-14 -104 -96 -104q-54 0 -66 56h-5q-149 0 -378 -86q-380 -191 -380 -426q0 -174 263 -261q109 -33 266 -33h3q838 0 1166 646q87 145 87 670v200l-3 23q0 55 66 81l23 2q62 0 83 -73v-5l3 -206 q0 -630 -119 -791q-55 -108 -236 -298q-406 -396 -961 -396h-68q-348 0 -563 160q-155 131 -155 286v31z" />
<glyph unicode="&#x645;" horiz-adv-x="1500" d="M74 12q0 329 480 563q350 153 603 153q169 0 269 -150q54 -90 54 -198q0 -187 -207 -325q-97 -52 -165 -52h-28q-108 0 -198 101q-68 86 -68 209v5q0 101 119 250v2q-115 -33 -228 -82q-125 -56 -250 -144q-228 -177 -228 -351q0 -254 231 -497q19 -20 19 -47v-15 q0 -60 -64 -79l-16 -1q-44 0 -85 59q-168 204 -219 438q-19 95 -19 161zM971 300q0 -118 112 -160l33 -5q74 0 170 102q61 80 61 148q0 82 -98 160q-38 19 -55 19q-62 0 -174 -130q-49 -71 -49 -122v-12z" />
<glyph unicode="&#x646;" horiz-adv-x="2442" d="M18 71q0 267 337 514q485 305 861 354q74 -14 74 -70v-22q0 -63 -152 -81q-56 0 -351 -114q-253 -122 -439 -269q-174 -171 -174 -308q0 -155 177 -294q253 -156 603 -156h39q595 0 1056 382q154 151 184 277q14 70 14 184q0 142 -42 447v3q21 64 63 64h22q65 0 74 -99 q39 -243 39 -422q0 -248 -85 -358q-160 -229 -386 -354q-424 -258 -900 -258q-456 0 -830 248q-184 151 -184 332zM1469 344q0 58 76 68q73 0 124 -96v-20q0 -49 -88 -68h-20q-75 0 -92 116z" />
<glyph unicode="&#x647;" horiz-adv-x="997" d="M53 195q0 95 102 174q75 64 144 101q65 39 164 73q81 28 101 28h9l17 8q14 6 27 6q39 0 142 -77q78 -69 94 -98q44 -65 44 -149q0 -117 -90 -178q-130 -79 -349 -79h-40q-206 0 -255 30q-28 10 -65 46q-45 52 -45 115zM198 193q0 -19 42 -33q19 -8 182 -11h19 q203 0 294 60q17 20 17 49v7q0 48 -38 86q-43 45 -70 62l-40 24q-12 -8 -60 -20q-95 -30 -169 -70q-67 -37 -146 -105q-31 -28 -31 -48v-1z" />
<glyph unicode="&#x648;" horiz-adv-x="479" d="M-252 -452l1 4q4 56 76 100q77 64 165 150q127 121 177 199q-131 56 -120 181q14 140 198 338q86 72 161 65q87 -7 114 -116q4 -35 1 -69q-18 -207 -227 -509q-68 -97 -240 -254q-178 -162 -227 -175l-15 1q-37 3 -59 52q-7 12 -5 33zM211 165l38 -21q26 18 84 166l19 80 q-90 -87 -133 -196z" />
<glyph unicode="&#x649;" horiz-adv-x="3204" d="M46 398v19q0 193 212 396q103 88 191 135q535 305 1142 305q301 0 370 -98q16 -25 16 -52v-10q0 -69 -94 -127l-23 -3h-8q-54 0 -73 64v19q0 8 15 29v3q-100 18 -214 18q-517 0 -998 -253q-120 -61 -246 -167q-158 -153 -158 -271v-12q0 -152 217 -287q91 -60 348 -126 q334 -80 707 -80q372 0 753 74q202 53 325 114q206 110 206 207q0 90 -251 260q-77 52 -133 114q-45 53 -45 105v3q0 121 281 180q304 84 449 84h36q79 0 96 -59l2 -19v-2q0 -61 -64 -77l-11 -2l-51 4q-184 0 -490 -100q-54 -29 -54 -41q6 -13 86 -66q306 -185 306 -365v-18 q0 -218 -338 -356q-97 -42 -312 -89q-351 -66 -697 -66h-46q-602 0 -1094 195q-358 160 -358 418z" />
<glyph unicode="&#x64b;" d="M72 1293v84l343 182v-87zM72 1481v84l343 182v-87z" />
<glyph unicode="&#x64c;" d="M25 1502q6 13 50 33q42 17 60 17q55 0 55 -73q0 -33 -20 -65q66 24 109 71q-58 55 -58 118q0 49 54 111q54 61 103 61q77 0 77 -86q0 -103 -57 -160q19 -10 59 -14l-8 -93q-33 5 -89 23q-91 -100 -300 -160l-32 57q30 12 83 54q18 22 18 49q0 32 -28 32q-12 0 -33 -10 q-20 -10 -25 -10q-7 0 -14 19q-7 18 -4 26zM292 1615q0 -16 14 -39q13 -22 31 -22q25 0 42 29q14 25 14 52q0 54 -42 54q-19 0 -39 -27q-20 -28 -20 -47z" />
<glyph unicode="&#x64d;" d="M251 -1050l343 182v-87l-343 -179v84zM251 -1238l343 182v-87l-343 -180v85z" />
<glyph unicode="&#x64e;" d="M72 1293v84l343 182v-87z" />
<glyph unicode="&#x64f;" d="M13 1338q87 34 205 152q-60 58 -60 128q0 56 58 123t115 67q101 0 101 -95q0 -93 -78 -177q28 -16 75 -16l-12 -113q-47 9 -126 36q-107 -115 -231 -158zM239 1644q0 -23 15 -47q16 -24 38 -24q20 0 39 39q17 36 17 56q0 63 -47 63q-21 0 -42 -32q-20 -32 -20 -55z" />
<glyph unicode="&#x650;" d="M259 -1032l343 182v-87l-343 -180v85z" />
<glyph unicode="&#x651;" d="M45 1406q0 60 15 105l60 27q-2 -30 -2 -41q0 -77 33 -77q75 0 70 153l55 23q10 -103 54 -103q53 0 53 144l60 30q5 -42 5 -82q0 -211 -99 -211q-53 0 -95 30q-57 -115 -118 -115q-41 0 -69 46q-22 37 -22 71z" />
<glyph unicode="&#x652;" d="M82 1435q0 79 42 146q49 79 129 79q81 0 123 -61q37 -52 37 -138q0 -97 -49 -137q-44 -36 -144 -36q-138 0 -138 147zM144 1453q0 -66 102 -66q96 0 96 72q0 100 -96 100q-29 0 -61 -25q-41 -32 -41 -81z" />
<glyph unicode="&#x664;" horiz-adv-x="879" d="M153.5 693.5q2.5 28.5 18.5 61.5t38 61t52 58.5t54 51.5t50 43q13 11 19 16q1 1 12 10.5t23.5 20.5t24 22t13.5 15q17 29 42 41.5t47 8t40 -19.5t21.5 -42t-7.5 -58q-20 -37 -54.5 -71.5t-83 -72.5t-70.5 -59q-39 -36 -66 -72l12 -3l46 -14q137 -46 148 -131 q5 -42 -8.5 -84t-37.5 -78.5t-49.5 -71.5t-46 -76t-25.5 -79q111 -23 209 14q47 18 67 20q39 1 65 -18t31 -45t-10.5 -52.5t-49.5 -38.5h-3h1q-4 -2 -14 -4h-2q-4 -2 -5 -2q-49 -18 -57 -20q-68 -15 -188 -24l-27 3q-1 0 -28 4.5t-50 11t-36 15.5q-49 35 -62.5 95t9.5 114 q23 56 79.5 149.5t75.5 131.5q-23 13 -76 28t-77 30q-36 23 -51.5 52.5t-13 58zM676 51h3h-1h-2z" />
<glyph unicode="&#x665;" horiz-adv-x="1004" d="M106 238q-21 48 8.5 142t60.5 125q21 20 87.5 85.5t103.5 99.5q-13 10 -63 54q-29 29 -31 63t17.5 54t50 25.5t66.5 -21.5q44 -39 173 -124t185 -148t83 -127t39 -145q6 -54 -27 -128.5t-75 -107.5q-50 -39 -163 -66q-60 -10 -134 -10.5t-158 23.5t-129 67 q-59 57 -94 139zM259 295q23 -64 51 -84q74 -52 188.5 -48.5t188.5 59.5q43 33 41 72q-4 51 -14.5 83.5t-35.5 67.5q-53 75 -176 155q-17 -15 -51 -43.5t-55 -46.5t-48 -44.5t-48 -50.5q-50 -63 -41 -120z" />
<glyph unicode="&#x666;" horiz-adv-x="1263" d="M60 915q3 84 129 81l350 -5l62 -2l62 2q48 -15 47 -69l-1 -4l-27 -194q-12 -386 463 -564q39 -1 56 -75q-7 -50 -30.5 -75t-61.5 -24h-4q-577 229 -562 732l13 112l-396 9q-94 3 -100 76z" />
<glyph unicode="&#x67e;" horiz-adv-x="1624" d="M31 299q0 183 268 349q109 57 235 91q192 45 326 45q51 0 75 -68v-28q0 -58 -78 -75h-53q-312 0 -523 -175q-93 -92 -93 -149q0 -133 366 -162l124 -2h2q472 0 773 313q86 103 86 374q0 65 53 89q15 7 36 7q83 -12 83 -81q0 -361 -169 -518q-164 -157 -379 -235 q-238 -83 -495 -83q-502 0 -614 210q-23 61 -23 98zM406 -354q0 66 108 88q152 24 560 48q36 0 52 -28l-26 -68q-9 -33 -590 -92h-8q-96 0 -96 52zM655 -586q0 59 76 68q73 0 124 -96v-20q0 -49 -88 -68h-20q-75 0 -92 116z" />
<glyph unicode="&#x686;" horiz-adv-x="1400" d="M-204 -431q0 378 534 767q188 146 334 231q24 9 24 28q-24 58 -156 116l-34 5h-7q-85 -15 -219 -197q-94 -185 -120 -205h-10q-10 0 -12 51v31q0 148 41 192q33 74 197 226q65 53 116 53q102 0 337 -180q31 -12 60 -12q31 0 110 36q32 7 65 7q148 0 258 -103 q14 -19 14 -29v-5q0 -67 -84 -99l-31 -4q-92 0 -296 45h-12q-87 0 -443 -245q-112 -73 -298 -253q-238 -254 -238 -444v-29q0 -266 216 -385q146 -96 402 -93h5q235 9 536 83q22 12 22 20l-9 16v20q8 33 29 33q95 -45 134 -115l2 -12q-1 -67 -241 -108q-283 -46 -447 -46 h-19q-281 0 -505 109q-33 12 -144 120q-78 98 -94 187q-17 70 -17 152v36zM400 -136q0 66 108 88q152 24 560 48q34 0 52 -28l-26 -68q-9 -35 -590 -92h-8q-96 0 -96 52zM649 -368q0 58 76 68q71 0 124 -96v-20q0 -49 -88 -68h-20q-77 0 -92 116z" />
<glyph unicode="&#x698;" horiz-adv-x="536" d="M-392 -578q0 35 44 73q0 3 169 168q172 172 224 239q134 158 222 290q113 171 219 356q25 31 64 31q44 0 69 -45q7 -13 7 -31v-3q0 -26 -30 -69q-65 -109 -119 -188q-39 -69 -131 -178q-158 -208 -396 -475q-81 -89 -185 -199q-37 -43 -51 -43q-12 -6 -31 -6 q-46 0 -70 50q-5 15 -5 24v6zM245 1302q0 66 108 88q152 24 560 48q36 0 52 -28l-26 -68q-9 -35 -590 -92h-8q-96 0 -96 52zM524 1688q0 58 76 68q73 0 124 -96v-20q0 -49 -88 -68h-20q-75 0 -92 116z" />
<glyph unicode="&#x6af;" horiz-adv-x="1801" d="M32 436q0 327 552 562l112 35h14q70 -13 70 -69v-11q0 -65 -119 -91q-475 -193 -475 -440q0 -200 419 -284q76 -14 154 -14q293 0 675 214q106 63 252 213q115 133 115 311l-7 102q23 62 63 62h21q62 0 70 -80l3 -56v-52q0 -398 -520 -675q-339 -154 -633 -154h-35 q-389 0 -626 192q-105 111 -105 235zM1823 1506v17q0 37 56 70q37 106 231 301q208 210 287 210h21q58 0 101 -91l3 -28v-11q0 -65 -195 -227q-93 -66 -147 -66h-7q-28 0 -77 35h-4q-98 -95 -105 -112h4q117 0 441 127q326 128 605 384l42 14q56 0 77 -63v-21 q0 -38 -101 -133q-586 -394 -1005 -448q-14 -7 -160 -28q-52 0 -67 70z" />
<glyph unicode="&#x2000;" horiz-adv-x="1066" />
<glyph unicode="&#x2001;" horiz-adv-x="2133" />
<glyph unicode="&#x2002;" horiz-adv-x="1066" />
<glyph unicode="&#x2003;" horiz-adv-x="2133" />
<glyph unicode="&#x2004;" horiz-adv-x="711" />
<glyph unicode="&#x2005;" horiz-adv-x="533" />
<glyph unicode="&#x2006;" horiz-adv-x="355" />
<glyph unicode="&#x2007;" horiz-adv-x="355" />
<glyph unicode="&#x2008;" horiz-adv-x="266" />
<glyph unicode="&#x2009;" horiz-adv-x="426" />
<glyph unicode="&#x200a;" horiz-adv-x="118" />
<glyph unicode="&#x2010;" horiz-adv-x="970" d="M93 434v14q0 59 97 66q242 34 442 34h14q197 0 197 -24q18 -24 18 -45v-14q0 -58 -97 -58q-428 -10 -623 -35q-48 19 -48 62z" />
<glyph unicode="&#x2011;" horiz-adv-x="970" d="M93 434v14q0 59 97 66q242 34 442 34h14q197 0 197 -24q18 -24 18 -45v-14q0 -58 -97 -58q-428 -10 -623 -35q-48 19 -48 62z" />
<glyph unicode="&#x2012;" horiz-adv-x="970" d="M93 434v14q0 59 97 66q242 34 442 34h14q197 0 197 -24q18 -24 18 -45v-14q0 -58 -97 -58q-428 -10 -623 -35q-48 19 -48 62z" />
<glyph unicode="&#x2013;" horiz-adv-x="1226" d="M93 434v14q0 59 129 66q323 34 590 34h18q263 0 263 -24q24 -24 24 -45v-14q0 -58 -129 -58q-571 -10 -831 -35q-64 19 -64 62z" />
<glyph unicode="&#x2014;" horiz-adv-x="2250" d="M93 434v14q0 59 259 66q645 34 1178 34h38q525 0 525 -24q48 -24 48 -45v-14q0 -58 -259 -58q-1141 -10 -1661 -35q-128 19 -128 62z" />
<glyph unicode="&#x2018;" horiz-adv-x="688" d="M235 1313q6 100 52 170q46 72 76 73q29 1 43 -17q14 -17 -15 -60q-30 -47 -43 -98q30 14 76 -23q47 -36 21 -107q-25 -70 -121 -54q-95 18 -89 116z" />
<glyph unicode="&#x2019;" horiz-adv-x="738" d="M254 1499q26 71 121 53q96 -18 89 -117q-6 -98 -53 -169t-76 -72q-30 -1 -44 16q-13 17 16 61q31 45 44 98q-30 -14 -76 23t-21 107z" />
<glyph unicode="&#x201c;" horiz-adv-x="1040" d="M261 1313q6 100 52 170q46 72 76 73q29 1 43 -17q14 -17 -15 -60q-30 -47 -43 -98q30 14 76 -23q47 -36 21 -107q-25 -70 -121 -54q-95 18 -89 116zM507 1313q6 100 52 170q46 72 76 73q29 1 43 -17q14 -17 -15 -60q-30 -47 -43 -98q30 14 76 -23q47 -36 21 -107 q-25 -70 -121 -54q-95 18 -89 116z" />
<glyph unicode="&#x201d;" horiz-adv-x="1028" d="M281 1502q26 71 121 51q96 -18 88 -117t-54 -169q-46 -69 -76 -71q-30 -1 -44 16q-13 17 16 61q30 44 45 98q-30 -14 -76 23t-20 108zM527 1499q26 72 121 52q95 -18 88 -117q-8 -99 -54 -169t-77 -72q-29 0 -43 17q-13 17 16 60q31 45 44 98q-30 -14 -76 23 q-45 37 -19 108z" />
<glyph unicode="&#x202f;" horiz-adv-x="426" />
<glyph unicode="&#x2039;" horiz-adv-x="872" d="M129 547v28q0 31 88 88q189 161 368 380q20 16 44 16h12q80 -15 80 -68v-8q0 -66 -380 -416q78 -71 241 -190q170 -124 154 -188q-16 -63 -65 -63h-12q-31 0 -128 88q-376 282 -390 301z" />
<glyph unicode="&#x203a;" horiz-adv-x="748" d="M98 159v8q0 40 143 186q144 145 222 234q-168 180 -264 271q-91 88 -94 142t62 56q66 3 233 -179q170 -186 193 -215q27 -32 24 -84q-5 -62 -44 -97q-38 -35 -209 -215q-170 -179 -202 -179q-50 0 -64 72z" />
<glyph unicode="&#x205f;" horiz-adv-x="533" />
<glyph unicode="&#xe000;" horiz-adv-x="500" d="M0 0z" />
</font>
</defs>
</svg>
